<svg width="14" height="14" viewBox="0 0 14 14" fill="none" xmlns="http://www.w3.org/2000/svg">
<path d="M13.2812 0.558594C13.0443 0.330729 12.7936 0.157552 12.5293 0.0390625C12.2741 -0.0794271 12.0052 -0.138672 11.7227 -0.138672C11.2852 -0.138672 10.916 -0.0338542 10.6152 0.175781C10.3145 0.376302 10.1185 0.522135 10.0273 0.613281C9.96354 0.667969 9.47591 1.15104 8.56445 2.0625C7.66211 2.97396 6.67773 3.96289 5.61133 5.0293C4.54492 6.0957 3.56966 7.07096 2.68555 7.95508C1.81055 8.83008 1.37305 9.26758 1.37305 9.26758C1.3457 9.29492 1.32292 9.32682 1.30469 9.36328C1.28646 9.39062 1.26823 9.42253 1.25 9.45898C1.20443 9.64128 1.11784 9.94206 0.990234 10.3613C0.871745 10.7715 0.744141 11.1953 0.607422 11.6328C0.479818 12.0703 0.365885 12.4577 0.265625 12.7949C0.165365 13.123 0.110677 13.2917 0.101562 13.3008C0.0833333 13.3828 0.0833333 13.4648 0.101562 13.5469C0.119792 13.6289 0.160807 13.6973 0.224609 13.752C0.261068 13.7975 0.306641 13.8294 0.361328 13.8477C0.416016 13.875 0.470703 13.8887 0.525391 13.8887C0.552734 13.8887 0.575521 13.8841 0.59375 13.875C0.621094 13.875 0.64388 13.8704 0.662109 13.8613C0.671224 13.8613 0.848958 13.8021 1.19531 13.6836C1.54167 13.5742 1.92904 13.4512 2.35742 13.3145C2.79492 13.1777 3.21875 13.0456 3.62891 12.918C4.03906 12.7812 4.30794 12.6947 4.43555 12.6582C4.47201 12.6491 4.50391 12.6354 4.53125 12.6172C4.56771 12.599 4.59961 12.5762 4.62695 12.5488C4.70898 12.4668 5.18294 11.9974 6.04883 11.1406C6.91471 10.2839 7.86263 9.34505 8.89258 8.32422C9.93164 7.29427 10.8978 6.33724 11.791 5.45312C12.6842 4.56901 13.1947 4.05859 13.3223 3.92188C13.5866 3.64844 13.7871 3.37044 13.9238 3.08789C14.0605 2.79622 14.1243 2.5 14.1152 2.19922C14.1061 1.91667 14.0332 1.63867 13.8965 1.36523C13.7598 1.08268 13.5547 0.813802 13.2812 0.558594ZM9.89062 2.00781C10 2.03516 10.1732 2.10352 10.4102 2.21289C10.6471 2.32227 10.9023 2.50911 11.1758 2.77344C11.4492 3.04688 11.6315 3.32031 11.7227 3.59375C11.8229 3.85807 11.8776 4.02669 11.8867 4.09961C11.4583 4.51888 10.9115 5.05664 10.2461 5.71289C9.58984 6.36914 8.91081 7.04818 8.20898 7.75C7.50716 8.44271 6.83268 9.10807 6.18555 9.74609C5.54753 10.375 5.03711 10.8809 4.6543 11.2637C4.58138 11.0996 4.48112 10.9219 4.35352 10.7305C4.23503 10.5299 4.08464 10.334 3.90234 10.1426C3.67448 9.91471 3.44661 9.73242 3.21875 9.5957C3 9.45898 2.79948 9.35417 2.61719 9.28125C3 8.89844 3.51497 8.38346 4.16211 7.73633C4.80924 7.08919 5.48372 6.41016 6.18555 5.69922C6.89648 4.98828 7.58464 4.30013 8.25 3.63477C8.91536 2.9694 9.46224 2.42708 9.89062 2.00781ZM2.01562 10.0195C2.14323 10.0469 2.32096 10.1198 2.54883 10.2383C2.77669 10.3477 3.01823 10.5299 3.27344 10.7852C3.46484 10.9766 3.61068 11.1725 3.71094 11.373C3.8112 11.5736 3.88411 11.7422 3.92969 11.8789C3.62891 11.9792 3.19596 12.125 2.63086 12.3164C2.06576 12.5078 1.56901 12.6719 1.14062 12.8086C1.26823 12.3984 1.41862 11.9154 1.5918 11.3594C1.77409 10.8034 1.91536 10.3568 2.01562 10.0195ZM12.6797 3.29297C12.6706 3.30208 12.6569 3.31576 12.6387 3.33398C12.6296 3.35221 12.6159 3.37044 12.5977 3.38867C12.5339 3.20638 12.4382 3.00586 12.3105 2.78711C12.1829 2.56836 12.0143 2.35417 11.8047 2.14453C11.5859 1.92578 11.3717 1.7526 11.1621 1.625C10.9525 1.48828 10.7611 1.38346 10.5879 1.31055C10.6061 1.29232 10.6198 1.27865 10.6289 1.26953C10.638 1.26042 10.6471 1.2513 10.6562 1.24219C10.6745 1.21484 10.7839 1.12826 10.9844 0.982422C11.194 0.836589 11.4401 0.763672 11.7227 0.763672C11.8867 0.763672 12.0462 0.80013 12.2012 0.873047C12.3652 0.945964 12.5202 1.05534 12.666 1.20117C12.8483 1.37435 12.985 1.54753 13.0762 1.7207C13.1764 1.89388 13.2266 2.0625 13.2266 2.22656C13.2266 2.39062 13.181 2.5638 13.0898 2.74609C12.9987 2.92839 12.862 3.11068 12.6797 3.29297Z" fill="#ABABAB"/>
</svg>
