<svg width="14" height="13" viewBox="0 0 14 13" fill="none" xmlns="http://www.w3.org/2000/svg">
<mask id="path-1-inside-1" fill="white">
<path d="M1.15003 0L13.5 12.35L12.85 13L0.50003 0.649999L1.15003 0Z"/>
<path d="M13.5 0.649999L1.15 13L0.5 12.35L12.85 6.57489e-07L13.5 0.649999Z"/>
</mask>
<path d="M1.15003 0L13.5 12.35L12.85 13L0.50003 0.649999L1.15003 0Z" fill="#2B2B2B"/>
<path d="M13.5 0.649999L1.15 13L0.5 12.35L12.85 6.57489e-07L13.5 0.649999Z" fill="#2B2B2B"/>
<path d="M1.15003 0L1.85713 -0.707107L1.15003 -1.41421L0.442921 -0.707107L1.15003 0ZM13.5 12.35L14.2071 13.0571L14.9142 12.35L14.2071 11.6429L13.5 12.35ZM12.85 13L12.1429 13.7071L12.85 14.4142L13.5571 13.7071L12.85 13ZM0.50003 0.649999L-0.207077 -0.0571082L-0.914184 0.649999L-0.207077 1.35711L0.50003 0.649999ZM13.5 0.649999L14.2071 1.35711L14.9142 0.649999L14.2071 -0.0571074L13.5 0.649999ZM1.15 13L0.442892 13.7071L1.15 14.4142L1.85711 13.7071L1.15 13ZM0.5 12.35L-0.207107 11.6429L-0.914214 12.35L-0.207107 13.0571L0.5 12.35ZM12.85 6.57489e-07L13.5571 -0.707106L12.85 -1.41421L12.1429 -0.707106L12.85 6.57489e-07ZM0.442921 0.707107L12.7929 13.0571L14.2071 11.6429L1.85713 -0.707107L0.442921 0.707107ZM12.7929 11.6429L12.1429 12.2929L13.5571 13.7071L14.2071 13.0571L12.7929 11.6429ZM13.5571 12.2929L1.20714 -0.0571082L-0.207077 1.35711L12.1429 13.7071L13.5571 12.2929ZM1.20714 1.35711L1.85713 0.707107L0.442921 -0.707107L-0.207077 -0.0571082L1.20714 1.35711ZM12.7929 -0.0571076L0.442892 12.2929L1.85711 13.7071L14.2071 1.35711L12.7929 -0.0571076ZM1.85711 12.2929L1.20711 11.6429L-0.207107 13.0571L0.442892 13.7071L1.85711 12.2929ZM1.20711 13.0571L13.5571 0.707107L12.1429 -0.707106L-0.207107 11.6429L1.20711 13.0571ZM12.1429 0.707107L12.7929 1.35711L14.2071 -0.0571074L13.5571 -0.707106L12.1429 0.707107Z" fill="#ABABAB" mask="url(#path-1-inside-1)"/>
</svg>
