<svg width="109" height="30" viewBox="0 0 109 30" fill="none" xmlns="http://www.w3.org/2000/svg">
<g clip-path="url(#clip0)">
<path d="M29.2982 4.34552C29.6422 2.95327 29.8109 1.51882 30.0771 0H29.1489C24.5048 0 19.8607 0 15.2134 0C14.3165 0.00861563 13.4215 0.0845538 12.536 0.227174C4.05911 1.57399 -1.88312 10.0606 0.547648 19.0859C0.739123 19.7934 1.09611 20.0952 1.78412 20.0595C3.70537 19.9751 5.64284 20.027 7.54137 19.7674C13.3582 19.0302 18.6943 16.1598 22.5154 11.7125C22.616 11.5989 22.9276 11.5112 22.9633 11.5664C18.1731 18.995 11.5461 23.4411 2.27093 22.9349C2.24496 22.9933 2.33583 23.0712 2.391 23.1588C2.8486 23.743 3.28347 24.3466 3.78001 24.8918C3.87858 24.9644 3.99171 25.0147 4.11161 25.0394C4.2315 25.064 4.35531 25.0624 4.47452 25.0346C9.60541 23.8306 14.4605 21.9288 18.8222 18.9139C24.0602 15.3116 27.7599 10.5928 29.2982 4.34552Z" fill="#66BD2A"/>
<path d="M29.8565 7.24364C28.977 11.8553 26.9844 15.86 23.4664 19.0437C20.3054 21.9061 16.5473 23.6099 12.4322 24.4992C9.85216 25.0574 7.21694 25.3397 4.58496 25.7486C4.62686 25.8095 4.67469 25.866 4.72776 25.9174C8.33009 29.2082 12.588 30.5745 17.3879 29.7826C24.9041 28.5591 30.009 22.354 30.009 14.7307C30.009 11.9689 30.009 9.21357 30.009 6.37064L29.8565 7.24364Z" fill="#66BD2A"/>
<path d="M15.402 7.33125H12.2897V4.21896C12.2897 4.09158 12.2391 3.96941 12.1491 3.87933C12.059 3.78926 11.9368 3.73865 11.8094 3.73865H9.29752C9.17013 3.73865 9.04797 3.78926 8.95789 3.87933C8.86781 3.96941 8.81721 4.09158 8.81721 4.21896V7.33125H5.70492C5.57753 7.33125 5.45536 7.38186 5.36529 7.47193C5.27521 7.56201 5.22461 7.68418 5.22461 7.81156V10.3267C5.22461 10.4541 5.27521 10.5763 5.36529 10.6663C5.45536 10.7564 5.57753 10.807 5.70492 10.807H8.81721V13.9193C8.81721 14.0467 8.86781 14.1689 8.95789 14.2589C9.04797 14.349 9.17013 14.3996 9.29752 14.3996H11.8094C11.9368 14.3996 12.059 14.349 12.1491 14.2589C12.2391 14.1689 12.2897 14.0467 12.2897 13.9193V10.8038H15.402C15.5294 10.8038 15.6516 10.7532 15.7417 10.6631C15.8317 10.573 15.8823 10.4509 15.8823 10.3235V7.81156C15.8823 7.68418 15.8317 7.56201 15.7417 7.47193C15.6516 7.38186 15.5294 7.33125 15.402 7.33125Z" fill="white"/>
<path d="M15.0315 7.7304H11.8153V4.51102C11.8153 4.4172 11.7781 4.32722 11.7117 4.26088C11.6454 4.19454 11.5554 4.15727 11.4616 4.15727H9.60851C9.51469 4.15727 9.42472 4.19454 9.35838 4.26088C9.29204 4.32722 9.25477 4.4172 9.25477 4.51102V7.7304H6.03538C5.94157 7.7304 5.85159 7.76767 5.78525 7.83401C5.71891 7.90035 5.68164 7.99033 5.68164 8.08414V10.0606C5.68164 10.107 5.69079 10.153 5.70857 10.1959C5.72635 10.2389 5.7524 10.2778 5.78525 10.3107C5.8181 10.3435 5.85709 10.3696 5.90001 10.3874C5.94293 10.4052 5.98893 10.4143 6.03538 10.4143H9.25477V13.6304C9.25477 13.6769 9.26392 13.7229 9.28169 13.7658C9.29947 13.8087 9.32553 13.8477 9.35838 13.8806C9.39122 13.9134 9.43022 13.9395 9.47314 13.9573C9.51606 13.975 9.56206 13.9842 9.60851 13.9842H11.4616C11.5081 13.9842 11.5541 13.975 11.597 13.9573C11.6399 13.9395 11.6789 13.9134 11.7117 13.8806C11.7446 13.8477 11.7706 13.8087 11.7884 13.7658C11.8062 13.7229 11.8153 13.6769 11.8153 13.6304V10.4046H15.0315C15.1236 10.4046 15.2122 10.3687 15.2782 10.3044C15.3443 10.2402 15.3827 10.1527 15.3852 10.0606V8.08414C15.3852 7.99033 15.348 7.90035 15.2816 7.83401C15.2153 7.76767 15.1253 7.7304 15.0315 7.7304Z" fill="#66BD2A"/>
<path d="M11.4619 14.2114H9.60878C9.45411 14.2114 9.30567 14.1504 9.1957 14.0416C9.08572 13.9329 9.02308 13.7851 9.02137 13.6304V10.6447H6.03565C5.88042 10.6447 5.7315 10.5833 5.62143 10.4738C5.51137 10.3644 5.4491 10.2158 5.44824 10.0606V8.08414C5.44824 8.007 5.46344 7.93062 5.49296 7.85935C5.52248 7.78808 5.56574 7.72333 5.62029 7.66878C5.67484 7.61424 5.73959 7.57097 5.81086 7.54145C5.88213 7.51193 5.95851 7.49674 6.03565 7.49674H9.02137V4.51101C9.02137 4.35522 9.08326 4.20581 9.19342 4.09565C9.30358 3.98549 9.45299 3.92361 9.60878 3.92361H11.4619C11.6177 3.92361 11.7671 3.98549 11.8772 4.09565C11.9874 4.20581 12.0493 4.35522 12.0493 4.51101V7.49674H15.035C15.1121 7.49674 15.1885 7.51193 15.2598 7.54145C15.3311 7.57097 15.3958 7.61424 15.4504 7.66878C15.5049 7.72333 15.5482 7.78808 15.5777 7.85935C15.6072 7.93062 15.6224 8.007 15.6224 8.08414V10.0606C15.6224 10.1377 15.6072 10.2141 15.5777 10.2854C15.5482 10.3566 15.5049 10.4214 15.4504 10.4759C15.3958 10.5305 15.3311 10.5737 15.2598 10.6033C15.1885 10.6328 15.1121 10.648 15.035 10.648H12.0493V13.6304C12.0476 13.7851 11.9849 13.9329 11.875 14.0416C11.765 14.1504 11.6165 14.2114 11.4619 14.2114ZM6.03565 7.96407C6.0038 7.96407 5.97326 7.97672 5.95074 7.99924C5.92822 8.02175 5.91557 8.0523 5.91557 8.08414V10.0606C5.91557 10.0924 5.92822 10.1229 5.95074 10.1455C5.97326 10.168 6.0038 10.1806 6.03565 10.1806H9.4887V13.6304C9.4887 13.6623 9.50135 13.6928 9.52387 13.7154C9.54639 13.7379 9.57693 13.7505 9.60878 13.7505H11.4619C11.4937 13.7505 11.5243 13.7379 11.5468 13.7154C11.5693 13.6928 11.582 13.6623 11.582 13.6304V10.1709H15.0318C15.0636 10.1709 15.0941 10.1583 15.1167 10.1357C15.1392 10.1132 15.1518 10.0827 15.1518 10.0508V8.08414C15.1518 8.0523 15.1392 8.02175 15.1167 7.99924C15.0941 7.97672 15.0636 7.96407 15.0318 7.96407H11.582V4.51101C11.582 4.47917 11.5693 4.44863 11.5468 4.42611C11.5243 4.40359 11.4937 4.39094 11.4619 4.39094H9.60878C9.57693 4.39094 9.54639 4.40359 9.52387 4.42611C9.50135 4.44863 9.4887 4.47917 9.4887 4.51101V7.96407H6.03565Z" fill="white"/>
<path d="M34.8477 10.3526C35.1181 10.398 35.4426 10.4392 35.8213 10.4759C36.1999 10.5127 36.5612 10.5311 36.9052 10.5311C37.6365 10.5311 38.1536 10.384 38.4565 10.0897C38.6111 9.92988 38.7313 9.73993 38.8094 9.53169C38.8876 9.32345 38.9221 9.10136 38.9108 8.87922C38.9344 8.66027 38.9048 8.43887 38.8246 8.2338C38.7444 8.02872 38.6159 7.84601 38.45 7.70116C38.0395 7.45325 37.5618 7.33979 37.0837 7.37663H36.003C35.7866 7.37663 35.6785 7.26845 35.6785 7.05209V6.19532H37.1129C37.3995 6.20579 37.6849 6.15489 37.9502 6.04603C38.1458 5.96455 38.3185 5.83642 38.4532 5.67282C38.5681 5.52815 38.649 5.35959 38.6901 5.17953C38.7296 5.0114 38.7502 4.83943 38.7518 4.66676C38.7686 4.46453 38.74 4.2611 38.6681 4.07133C38.5963 3.88155 38.4829 3.71022 38.3364 3.56983C37.9437 3.30118 37.4703 3.17623 36.9961 3.21609C36.6581 3.21173 36.3204 3.2367 35.9868 3.29073C35.7664 3.3345 35.5428 3.35947 35.3182 3.36538C35.272 3.37182 35.225 3.36658 35.1813 3.35014C35.1376 3.3337 35.0988 3.30658 35.0683 3.27126C35.0255 3.20221 35.0041 3.12205 35.0067 3.04084V2.44694C35.3242 2.33098 35.6496 2.23771 35.9803 2.16784C36.419 2.07704 36.8661 2.03352 37.3141 2.03803C38.2704 2.03803 38.9747 2.25439 39.4268 2.6871C39.6627 2.93227 39.8446 3.22411 39.9608 3.54382C40.0771 3.86353 40.1251 4.20404 40.1019 4.54344C40.118 4.99806 40.0055 5.44801 39.7773 5.84158C39.5377 6.21904 39.1908 6.51627 38.781 6.6951C39.2598 6.83671 39.6727 7.14381 39.9461 7.56161C40.1898 7.98539 40.3111 8.46847 40.2966 8.95711C40.3228 9.34057 40.265 9.72513 40.1271 10.0839C39.9892 10.4427 39.7746 10.767 39.4982 11.0341C38.966 11.508 38.1947 11.7449 37.1843 11.7449C37.0772 11.7449 36.9312 11.7449 36.7494 11.7254C36.5677 11.7059 36.3827 11.6929 36.188 11.6702C35.9933 11.6475 35.805 11.6215 35.6201 11.5891C35.4652 11.5667 35.3129 11.5286 35.1657 11.4755C35.0658 11.4489 34.9778 11.3894 34.9158 11.3067C34.8741 11.2348 34.8528 11.1529 34.8541 11.0698L34.8477 10.3526Z" fill="#2B2B2B"/>
<path d="M46.4375 11.2581C46.3726 10.8525 46.3077 10.463 46.2395 10.0866C46.1714 9.71009 46.1 9.33363 46.0286 8.95717H43.0072C42.9141 9.38988 42.8308 9.8226 42.7573 10.2553C42.6837 10.688 42.6145 11.1207 42.5496 11.5534H41.5078C41.3088 11.5534 41.2136 11.4453 41.2222 11.2289C41.2494 10.9608 41.2906 10.6944 41.3455 10.4306C41.5078 9.56513 41.6885 8.72783 41.8875 7.91866C42.0866 7.10949 42.2954 6.36197 42.5139 5.67612C42.7302 4.97729 42.9412 4.33471 43.1467 3.74839C43.3523 3.16206 43.5535 2.6428 43.7503 2.19062H45.1037C45.1903 2.18406 45.2764 2.20818 45.3471 2.25877C45.4109 2.31796 45.4579 2.39297 45.4834 2.47621C45.6673 2.93489 45.8674 3.48443 46.0838 4.12485C46.3001 4.76526 46.524 5.47816 46.7555 6.26353C46.9719 7.04891 47.1818 7.89053 47.3851 8.78841C47.5885 9.68629 47.7605 10.6134 47.9012 11.5697H46.7491C46.7079 11.5706 46.667 11.5631 46.6288 11.5478C46.5906 11.5324 46.5559 11.5095 46.5268 11.4804C46.4977 11.4513 46.4748 11.4166 46.4594 11.3784C46.4441 11.3402 46.4366 11.2993 46.4375 11.2581ZM44.5098 3.35245C44.2934 4.00152 44.0716 4.69386 43.8445 5.42948C43.6173 6.16509 43.4009 6.97102 43.1954 7.84726H45.8631C45.6467 6.98183 45.4304 6.17591 45.214 5.42948C44.9976 4.68305 44.7629 3.99071 44.5098 3.35245Z" fill="#2B2B2B"/>
<path d="M52.4772 2.05423C52.8031 2.05574 53.1284 2.08068 53.4508 2.12888C53.7217 2.161 53.9877 2.2264 54.2426 2.3236C54.3348 2.35527 54.4137 2.41699 54.4666 2.49885C54.5111 2.58724 54.5323 2.68554 54.5282 2.78444V3.43351C54.2654 3.39781 53.9733 3.36535 53.6552 3.3329C53.3372 3.30045 53.0062 3.28422 52.6622 3.28422C52.3116 3.27457 51.9625 3.33185 51.6334 3.45298C51.3518 3.56369 51.113 3.76156 50.9519 4.01767C50.7587 4.35305 50.6351 4.72391 50.5884 5.10811C50.5077 5.67562 50.4708 6.24849 50.478 6.82165C50.4673 7.4422 50.513 8.06244 50.6143 8.67475C50.673 9.06942 50.8087 9.44874 51.0135 9.79115C51.1706 10.042 51.4053 10.2346 51.6821 10.3396C51.9952 10.4468 52.3248 10.4973 52.6557 10.4889C52.9815 10.4916 53.307 10.4688 53.6293 10.4207C53.8436 10.3817 54.0606 10.3589 54.2783 10.3526C54.5023 10.3526 54.6029 10.4629 54.6029 10.6771V11.3262C53.8967 11.5868 53.1487 11.7155 52.396 11.7059C51.8736 11.7196 51.3538 11.628 50.8675 11.4365C50.4432 11.2557 50.0795 10.9573 49.8192 10.5765C49.5242 10.1247 49.3233 9.61809 49.2286 9.08691C49.0922 8.36163 49.0291 7.62446 49.0403 6.88656C49.0291 6.1422 49.0921 5.39858 49.2286 4.66674C49.3238 4.12956 49.5294 3.61794 49.8322 3.16414C50.0959 2.78443 50.4647 2.49003 50.8934 2.31711C51.3997 2.12892 51.9373 2.03968 52.4772 2.05423Z" fill="#2B2B2B"/>
<path d="M62.6344 6.88664C62.6536 7.71026 62.5719 8.53313 62.391 9.33687C62.2733 9.87437 62.0371 10.3788 61.6997 10.8135C61.4186 11.1544 61.0442 11.4059 60.6223 11.5372C60.1719 11.673 59.7036 11.7397 59.2333 11.7352C58.7661 11.7401 58.3009 11.6734 57.854 11.5372C57.4345 11.4048 57.0624 11.1534 56.783 10.8135C56.4455 10.3789 56.2093 9.87444 56.0918 9.33687C55.9112 8.53308 55.8295 7.71025 55.8484 6.88664C55.8295 6.06303 55.9112 5.2402 56.0918 4.4364C56.212 3.89794 56.4516 3.39333 56.7928 2.95977C57.0722 2.61992 57.4442 2.3685 57.8637 2.23606C58.3107 2.10004 58.7758 2.03328 59.243 2.03809C59.7133 2.0337 60.1816 2.10045 60.632 2.23606C61.0539 2.36738 61.4284 2.61888 61.7095 2.95977C62.047 3.39434 62.2832 3.89884 62.4007 4.4364C62.5783 5.24056 62.6568 6.06342 62.6344 6.88664ZM57.3023 6.88664C57.2962 7.46771 57.3254 8.04863 57.3899 8.62614C57.4317 9.01652 57.5415 9.39656 57.7144 9.74903C57.8417 10.0121 58.0514 10.2263 58.3116 10.3592C58.9152 10.6035 59.5902 10.6035 60.1939 10.3592C60.4473 10.2185 60.6487 10 60.7683 9.73605C60.9395 9.38292 61.0493 9.00318 61.0929 8.61316C61.1622 8.03601 61.1936 7.45493 61.187 6.87366C61.1936 6.29239 61.1622 5.71131 61.0929 5.13415C61.0492 4.74414 60.9395 4.36442 60.7683 4.01126C60.6401 3.74892 60.4307 3.53494 60.1712 3.40114C59.5672 3.15852 58.8929 3.15852 58.2889 3.40114C58.0289 3.53437 57.8194 3.74851 57.6917 4.01126C57.5189 4.36376 57.4091 4.74379 57.3672 5.13415C57.3076 5.7163 57.2837 6.30156 57.2958 6.88664H57.3023Z" fill="#2B2B2B"/>
<path d="M65.7307 3.38166V5.939H67.2755C67.6991 5.93551 68.1217 5.98125 68.5347 6.0753C68.8884 6.15786 69.2203 6.31498 69.5083 6.53614C69.7937 6.76092 70.017 7.05466 70.1574 7.38967C70.3206 7.80253 70.3989 8.24402 70.3878 8.68781C70.4005 9.14697 70.3245 9.60428 70.1639 10.0346C70.0318 10.3765 69.8179 10.6807 69.5408 10.9206C69.2631 11.1521 68.9371 11.3184 68.5867 11.4074C68.1893 11.5103 67.7801 11.5604 67.3696 11.5567H64.6468C64.4326 11.5567 64.3223 11.4528 64.3223 11.2322V2.18738H69.1254C69.1683 2.18453 69.2113 2.19024 69.252 2.20417C69.2927 2.2181 69.3301 2.23997 69.3623 2.26851C69.3925 2.29846 69.4159 2.33452 69.431 2.37425C69.4461 2.41399 69.4526 2.4565 69.4499 2.49893V3.37842L65.7307 3.38166ZM65.7307 7.07812V10.4468H67.2755C67.7376 10.4781 68.1963 10.3485 68.5737 10.0801C68.8658 9.83558 69.0129 9.38448 69.015 8.72675C69.0172 8.06903 68.8701 7.63631 68.5737 7.42861C68.1764 7.1649 67.7023 7.04153 67.2269 7.07812H65.7307Z" fill="#2B2B2B"/>
<path d="M71.959 2.18736H72.9878C73.2041 2.18736 73.3123 2.29554 73.3123 2.5119V9.08697C73.4486 8.82518 73.6228 8.50065 73.8348 8.11337C74.0468 7.72609 74.2772 7.3042 74.526 6.84768C74.7727 6.39333 75.028 5.93033 75.2919 5.45867C75.5559 4.98702 75.808 4.54024 76.0481 4.11835L76.6972 2.98247L77.1515 2.19061H78.1803C78.2244 2.18404 78.2695 2.1879 78.3119 2.20188C78.3542 2.21587 78.3927 2.23959 78.4243 2.27114C78.4559 2.30269 78.4796 2.3412 78.4936 2.38357C78.5075 2.42595 78.5114 2.47101 78.5048 2.51514V11.5697H77.4761C77.2586 11.5697 77.1515 11.4658 77.1515 11.2451V4.46235C77.0509 4.62462 76.9049 4.881 76.7102 5.22825L76.0611 6.41281C75.8123 6.84552 75.5483 7.31934 75.2692 7.83427L74.4644 9.29468C74.2069 9.76417 73.97 10.1969 73.7537 10.5928C73.5373 10.9887 73.3653 11.3133 73.2376 11.5664H72.29C72.0726 11.5664 71.9655 11.4626 71.9655 11.2419L71.959 2.18736Z" fill="#2B2B2B"/>
<path d="M35.5814 26.0049C35.365 26.0049 35.2568 25.8968 35.2568 25.6804V16.7849C35.6549 16.7135 36.1017 16.6529 36.5972 16.6032C37.0608 16.5549 37.5265 16.53 37.9927 16.5285C39.0745 16.5285 39.8782 16.7633 40.404 17.2328C40.9297 17.7023 41.1872 18.4876 41.1764 19.5889C41.1878 20.0713 41.1165 20.5521 40.9654 21.0104C40.845 21.3679 40.6427 21.6924 40.3748 21.958C40.1119 22.2072 39.7939 22.3906 39.4466 22.4935C39.0526 22.6096 38.6435 22.6664 38.2328 22.6622C37.9844 22.6606 37.7362 22.6444 37.4896 22.6136C37.2278 22.5811 36.9531 22.5335 36.6653 22.4708V26.0049H35.5814ZM36.6718 21.3901C36.9055 21.4333 37.1402 21.4723 37.3761 21.5069C37.6095 21.5375 37.8448 21.5527 38.0803 21.5523C38.3351 21.5562 38.5893 21.5268 38.8365 21.4647C39.0421 21.4095 39.2278 21.2969 39.3719 21.1402C39.5268 20.9678 39.6381 20.7608 39.6965 20.5365C39.8433 19.8958 39.8433 19.2301 39.6965 18.5893C39.6361 18.3664 39.5174 18.1636 39.3525 18.0019C39.1933 17.8603 38.9997 17.7629 38.791 17.7196C38.5435 17.6674 38.291 17.6424 38.0381 17.6449C37.7687 17.6449 37.5124 17.6449 37.2722 17.6741C37.0754 17.6867 36.8793 17.7095 36.6848 17.7423L36.6718 21.3901Z" fill="#2B2B2B"/>
<path d="M47.7062 16.6227C47.7507 16.6138 47.7967 16.616 47.8402 16.6292C47.8836 16.6423 47.9232 16.666 47.9553 16.6981C47.9874 16.7302 48.0111 16.7697 48.0242 16.8132C48.0374 16.8566 48.0396 16.9027 48.0307 16.9472V17.8007H44.1363V20.6729H47.346C47.3905 20.664 47.4365 20.6662 47.48 20.6794C47.5234 20.6925 47.5629 20.7162 47.595 20.7483C47.6271 20.7804 47.6508 20.8199 47.664 20.8634C47.6771 20.9068 47.6794 20.9529 47.6705 20.9974V21.8639H44.1363V24.8561H47.8457C47.8886 24.8533 47.9317 24.859 47.9723 24.8729C48.013 24.8868 48.0505 24.9087 48.0827 24.9372C48.1128 24.9672 48.1362 25.0032 48.1514 25.043C48.1665 25.0827 48.1729 25.1252 48.1703 25.1677V26.0212H43.0394C42.823 26.0212 42.7148 25.913 42.7148 25.6967V16.6227H47.7062Z" fill="#2B2B2B"/>
<path d="M54.3592 25.6934C54.2965 25.2888 54.2305 24.8983 54.1612 24.5219C54.092 24.1454 54.0217 23.7689 53.9503 23.3925H50.9289C50.838 23.8252 50.7558 24.2579 50.6822 24.6906C50.6087 25.1233 50.5394 25.5561 50.4745 25.9888H49.4328C49.2315 25.9888 49.1374 25.8752 49.1472 25.6642C49.1743 25.3961 49.2154 25.1296 49.2705 24.8659C49.4328 24.0004 49.6145 23.1631 49.8157 22.354C50.0169 21.5448 50.2192 20.8005 50.4226 20.1212C50.6389 19.4223 50.8499 18.7798 51.0554 18.1934C51.261 17.6071 51.4622 17.0878 51.6591 16.6357H53.0124C53.099 16.6291 53.1852 16.6532 53.2558 16.7038C53.3194 16.7632 53.3664 16.8381 53.3921 16.9213C53.5825 17.3799 53.7902 17.9306 54.0152 18.5731C54.2402 19.2157 54.4641 19.9286 54.687 20.7118C54.9033 21.4972 55.1132 22.3388 55.3166 23.2367C55.52 24.1346 55.6876 25.0573 55.8196 26.005H54.6675C54.4879 26.005 54.3852 25.9011 54.3592 25.6934ZM52.4315 17.7878C52.2151 18.4368 51.9923 19.1292 51.7629 19.8648C51.5336 20.6004 51.3172 21.4063 51.1139 22.2826H53.7815C53.5652 21.4171 53.3488 20.6112 53.1325 19.8648C52.9161 19.1184 52.6814 18.426 52.4282 17.7878H52.4315Z" fill="#2B2B2B"/>
<path d="M58.5426 17.817V20.3743H60.0841C60.5076 20.3703 60.9301 20.415 61.3433 20.5074C61.6967 20.5906 62.0286 20.7476 62.3169 20.9682C62.6024 21.1929 62.8258 21.4866 62.966 21.8217C63.1296 22.2345 63.208 22.676 63.1964 23.1199C63.2091 23.579 63.1331 24.0363 62.9725 24.4667C62.8393 24.8079 62.6255 25.1119 62.3494 25.3527C62.0717 25.5841 61.7457 25.7505 61.3953 25.8395C60.9978 25.9421 60.5887 25.9923 60.1783 25.9887H57.4554C57.239 25.9887 57.1309 25.8806 57.1309 25.6642V16.6227H61.9535C61.9964 16.6198 62.0394 16.6255 62.0801 16.6395C62.1207 16.6534 62.1582 16.6753 62.1904 16.7038C62.2207 16.7336 62.2443 16.7697 62.2594 16.8094C62.2745 16.8492 62.2809 16.8918 62.278 16.9342V17.817H58.5426ZM58.5426 21.5134V24.8821H60.0841C60.5462 24.9134 61.0049 24.7838 61.3823 24.5154C61.6744 24.272 61.8236 23.8209 61.8236 23.162C61.8236 22.5032 61.6776 22.0976 61.3823 21.8639C60.986 21.6007 60.5131 21.4773 60.0387 21.5134H58.5426Z" fill="#2B2B2B"/>
<path d="M65.095 26.005C64.8776 26.005 64.7705 25.9011 64.7705 25.6804V16.6227H65.8804C66.0968 16.6227 66.205 16.7308 66.205 16.9472V26.005H65.095Z" fill="#2B2B2B"/>
<path d="M74.5969 26.005H73.4999C73.2836 26.005 73.1754 25.8968 73.1754 25.6804V17.7877H70.4688C70.4688 18.1123 70.4493 18.4563 70.4428 18.823C70.4363 19.1897 70.4201 19.5532 70.4006 19.9199L70.3455 21.0104C70.3292 21.3706 70.3033 21.7114 70.2773 22.0262C70.1691 23.426 69.9528 24.4526 69.6282 25.106C69.5121 25.3931 69.313 25.6392 69.0563 25.8126C68.7996 25.986 68.4971 26.079 68.1873 26.0796C67.9829 26.0874 67.7792 26.0509 67.5902 25.9725C67.5208 25.9373 67.4607 25.8861 67.4149 25.8232C67.372 25.7402 67.3529 25.647 67.3597 25.5538V24.9372C67.4246 24.9414 67.4896 24.9414 67.5545 24.9372H67.7492C67.8906 24.9374 68.0299 24.9029 68.1549 24.8366C68.3137 24.7272 68.4341 24.5705 68.4989 24.3888C68.6291 24.0595 68.7217 23.7166 68.7747 23.3665C68.8723 22.7572 68.9352 22.1428 68.9629 21.5264C68.9889 21.1564 69.0116 20.7637 69.0246 20.3418C69.0376 19.9199 69.0506 19.498 69.0668 19.0696C69.083 18.6413 69.0895 18.2161 69.0993 17.7975C69.109 17.3788 69.1155 16.9829 69.1252 16.6129H74.2691C74.4865 16.6129 74.5936 16.7168 74.5936 16.9374L74.5969 26.005Z" fill="#2B2B2B"/>
<path d="M76.8167 26.005C76.6025 26.005 76.4922 25.9011 76.4922 25.6804V16.6227H77.5891C77.8066 16.6227 77.9137 16.7265 77.9137 16.9472V26.005H76.8167Z" fill="#2B2B2B"/>
<path d="M81.7047 17.817H79.5531C79.3367 17.817 79.2285 17.7088 79.2285 17.4924V16.6227H85.2941C85.337 16.6198 85.38 16.6255 85.4207 16.6395C85.4614 16.6534 85.4988 16.6753 85.531 16.7038C85.5612 16.7338 85.5846 16.7698 85.5997 16.8096C85.6148 16.8493 85.6213 16.8918 85.6186 16.9342V17.817H83.1262V26.005H82.0293C81.8129 26.005 81.7047 25.8968 81.7047 25.6804V17.817Z" fill="#2B2B2B"/>
<path d="M91.6156 25.6934C91.5507 25.2878 91.4858 24.8983 91.4177 24.5219C91.3495 24.1454 91.2781 23.7722 91.2067 23.3925H88.1853C88.0945 23.8252 88.0112 24.2579 87.9354 24.6906C87.8597 25.1233 87.7916 25.5561 87.731 25.9888H86.6892C86.4913 25.9888 86.3971 25.8752 86.4036 25.6642C86.4312 25.3962 86.4723 25.1297 86.527 24.8659C86.6914 24.0004 86.8731 23.1631 87.0722 22.354C87.2712 21.5448 87.4746 20.8005 87.6823 20.1212C87.8987 19.4223 88.1096 18.7798 88.3151 18.1934C88.5207 17.6071 88.7219 17.0878 88.9188 16.6357H90.2721C90.3587 16.6291 90.4449 16.6532 90.5155 16.7038C90.5787 16.7635 90.6256 16.8383 90.6518 16.9213C90.84 17.3799 91.0477 17.9306 91.2749 18.5731C91.5021 19.2157 91.726 19.9286 91.9467 20.7118C92.163 21.4972 92.3729 22.3388 92.5763 23.2367C92.7797 24.1346 92.9517 25.0617 93.0923 26.018H91.9402C91.7487 26.005 91.6416 25.9011 91.6156 25.6934ZM89.6879 17.7878C89.4716 18.4368 89.2498 19.1292 89.0226 19.8648C88.7955 20.6004 88.5791 21.4063 88.3736 22.2826H91.0412C90.8249 21.4171 90.6085 20.6112 90.3922 19.8648C90.1758 19.1184 89.94 18.426 89.6847 17.7878H89.6879Z" fill="#2B2B2B"/>
<path d="M94.4033 16.6226H95.5002C95.5857 16.6174 95.6701 16.644 95.7372 16.6973C95.7679 16.7254 95.7918 16.7602 95.807 16.799C95.8222 16.8379 95.8283 16.8796 95.8248 16.9212V24.7879H99.1967V16.6226H100.281C100.497 16.6226 100.605 16.7308 100.605 16.9471V24.8009H101.322C101.367 24.792 101.413 24.7942 101.456 24.8074C101.5 24.8206 101.539 24.8442 101.571 24.8763C101.604 24.9084 101.627 24.948 101.64 24.9914C101.654 25.0349 101.656 25.0809 101.647 25.1254V28.0235H100.631C100.415 28.0235 100.307 27.9153 100.307 27.699V26.0049H94.7279C94.5104 26.0049 94.4033 25.9011 94.4033 25.6804V16.6226Z" fill="#2B2B2B"/>
<path d="M103.218 26.005C103.002 26.005 102.894 25.8968 102.894 25.6804V16.6227H103.99C104.207 16.6227 104.315 16.7308 104.315 16.9472V26.005H103.218Z" fill="#2B2B2B"/>
<path d="M106.447 15.0129C106.457 15.114 106.446 15.216 106.415 15.3126C106.383 15.4091 106.333 15.4983 106.265 15.5744C106.096 15.7017 105.886 15.7618 105.675 15.7431C105.461 15.7624 105.247 15.7024 105.074 15.5744C104.956 15.4113 104.892 15.2147 104.892 15.0129C104.892 14.8112 104.956 14.6146 105.074 14.4515C105.244 14.3233 105.456 14.2621 105.668 14.2795C105.879 14.2598 106.09 14.3201 106.259 14.4482C106.328 14.524 106.38 14.6134 106.413 14.7106C106.445 14.8079 106.457 14.9109 106.447 15.0129ZM106.541 26.0082C106.325 26.0082 106.217 25.9 106.217 25.6836V16.6226H107.314C107.53 16.6226 107.638 16.7308 107.638 16.9472V26.0049L106.541 26.0082ZM108.978 15.0129C108.988 15.114 108.977 15.216 108.946 15.3126C108.915 15.4091 108.864 15.4983 108.797 15.5744C108.628 15.7012 108.419 15.7613 108.209 15.7431C107.994 15.7626 107.779 15.7026 107.606 15.5744C107.49 15.4101 107.427 15.214 107.427 15.0129C107.427 14.8119 107.49 14.6157 107.606 14.4515C107.776 14.3239 107.987 14.2627 108.2 14.2795C108.41 14.2607 108.619 14.3208 108.787 14.4482C108.855 14.5244 108.907 14.6139 108.939 14.7111C108.971 14.8083 108.982 14.9111 108.972 15.0129H108.978Z" fill="#2B2B2B"/>
<path d="M33.8385 1.29814C33.845 1.56273 33.7724 1.82323 33.63 2.04635C33.4876 2.26946 33.282 2.44505 33.0393 2.55066C32.7966 2.65627 32.5279 2.68711 32.2676 2.63922C32.0073 2.59134 31.7672 2.46692 31.578 2.28187C31.3888 2.09681 31.259 1.85953 31.2054 1.60035C31.1517 1.34118 31.1766 1.07189 31.2767 0.826917C31.3769 0.581942 31.5479 0.37241 31.7678 0.225108C31.9877 0.0778072 32.2465 -0.000570038 32.5112 -3.22203e-06C32.6841 -0.00389483 32.856 0.0268076 33.0169 0.0903006C33.1778 0.153794 33.3244 0.248797 33.448 0.36973C33.5717 0.490663 33.6699 0.635087 33.737 0.794519C33.8041 0.953951 33.8386 1.12518 33.8385 1.29814ZM31.5084 1.29814C31.504 1.43336 31.527 1.56807 31.576 1.69416C31.6251 1.82025 31.6991 1.93511 31.7937 2.03183C31.8883 2.12855 32.0015 2.20513 32.1265 2.25696C32.2515 2.30878 32.3856 2.33479 32.5209 2.3334C32.6525 2.33089 32.7822 2.30227 32.9026 2.2492C33.023 2.19613 33.1316 2.11966 33.2222 2.02425C33.3128 1.92883 33.3835 1.81637 33.4302 1.69339C33.477 1.57041 33.4988 1.43937 33.4945 1.30787C33.4945 1.04277 33.3892 0.788527 33.2018 0.601071C33.0143 0.413616 32.7601 0.308305 32.495 0.308305C32.2298 0.308305 31.9756 0.413616 31.7882 0.601071C31.6007 0.788527 31.4954 1.04277 31.4954 1.30787L31.5084 1.29814ZM32.3067 1.97641H32.0049V0.678275C32.1702 0.652641 32.3375 0.642861 32.5047 0.649066C32.661 0.635991 32.8177 0.668692 32.9558 0.743182C32.997 0.778232 33.0297 0.822104 33.0516 0.871544C33.0736 0.920983 33.0841 0.974722 33.0824 1.02877C33.0783 1.10215 33.0494 1.17196 33.0005 1.22679C32.9515 1.28161 32.8854 1.31821 32.813 1.33059C32.8787 1.35743 32.9356 1.40199 32.9774 1.45929C33.0193 1.51659 33.0444 1.58439 33.0499 1.65512C33.0624 1.7679 33.0943 1.87767 33.144 1.97966H32.8195C32.7683 1.87749 32.7333 1.76802 32.7156 1.65512C32.6929 1.51233 32.6118 1.45067 32.4463 1.45067H32.3035L32.3067 1.97641ZM32.3067 1.24297H32.4528C32.6183 1.24297 32.7546 1.18779 32.7546 1.05474C32.7546 0.921676 32.667 0.856769 32.4787 0.856769C32.4237 0.850411 32.3682 0.850411 32.3132 0.856769L32.3067 1.24297Z" fill="#66BD2A"/>
</g>
<defs>
<clipPath id="clip0">
<rect width="108.972" height="30" fill="white"/>
</clipPath>
</defs>
</svg>
