<svg width="58" height="58" viewBox="0 0 58 58" fill="none" xmlns="http://www.w3.org/2000/svg">
<circle cx="29" cy="29" r="29" fill="white"/>
<g clip-path="url(#clip0)">
<path d="M34.6406 26.7475C33.9005 26.7475 33.2038 26.9318 32.5935 27.2571C32.6156 27.1703 32.6373 27.0836 32.6594 26.9972C32.8147 26.52 33.0169 26.0501 33.2937 25.6366C33.573 25.2285 33.8846 24.8426 34.2443 24.5421C34.4128 24.3753 34.6068 24.2533 34.7848 24.1158C34.9697 23.9908 35.1593 23.8839 35.3414 23.7785C35.5318 23.6935 35.7115 23.5943 35.8925 23.5274C36.0745 23.4666 36.2468 23.3936 36.4146 23.3486C36.5846 23.3068 36.7437 23.2674 36.8907 23.2313C37.0403 23.2064 37.1792 23.1895 37.3052 23.1705C37.3687 23.1617 37.4286 23.153 37.4848 23.1454C37.5413 23.1402 37.5944 23.1405 37.644 23.138C37.7436 23.134 37.8283 23.131 37.8967 23.1284C38.0351 23.1226 38.1089 23.1197 38.1089 23.1197L38.1604 22.672C38.1604 22.672 38.0821 22.6595 37.9358 22.636C37.8623 22.6241 37.7712 22.6097 37.6645 22.5928C37.6108 22.5847 37.5529 22.5739 37.4911 22.5665C37.4292 22.563 37.3631 22.5596 37.2931 22.5554C37.1535 22.5484 36.9975 22.5365 36.8271 22.5317C36.6562 22.5394 36.4715 22.5478 36.2742 22.5563C36.0762 22.5697 35.8688 22.6103 35.6457 22.6404C35.4238 22.6761 35.1977 22.7452 34.9545 22.8024C34.7203 22.8807 34.4717 22.9631 34.2224 23.0674C33.9801 23.1846 33.7158 23.2904 33.472 23.4476C32.9608 23.7288 32.4763 24.1213 32.0129 24.5753C31.5521 25.0348 31.1549 25.5913 30.8139 26.2019C30.7376 26.3597 30.6609 26.5183 30.5838 26.6771C30.5438 26.7545 30.5091 26.8401 30.4781 26.9321L30.3816 27.2034L30.2874 27.4779C30.2701 27.5275 30.2596 27.5651 30.2506 27.6006L30.2208 27.7112L30.1612 27.9323L30.1314 28.0432L30.1166 28.0985L30.109 28.126L30.1055 28.1401L30.1036 28.1471C30.1032 28.1506 30.1029 28.1524 30.1026 28.1532C30.1026 28.1528 30.1029 28.1509 30.1029 28.1492C30.1014 28.1567 30.0988 28.1746 30.0934 28.2129C29.9659 28.9259 29.9166 29.6663 29.9879 30.3984C30.0713 31.1238 30.2357 31.8419 30.5079 32.5004C30.6325 32.8715 30.8061 33.2205 31.0207 33.5394C31.3738 34.0642 31.8382 34.5081 32.3798 34.8372C32.3827 34.839 32.386 34.8407 32.3888 34.8425C32.4757 34.895 32.5649 34.9449 32.6557 34.9912C32.6589 34.9928 32.6624 34.9947 32.6655 34.9963C33.2587 35.2983 33.9298 35.4683 34.6407 35.4683C35.329 35.4683 35.9804 35.3088 36.5591 35.0247C36.6311 34.9896 36.7017 34.9522 36.7713 34.9132C38.102 34.1667 39.0012 32.7425 39.0012 31.1078C39.0011 28.6997 37.0489 26.7475 34.6406 26.7475Z" fill="#4A4D53"/>
<path d="M23.6856 26.7475C22.9455 26.7475 22.2488 26.9318 21.6385 27.2571C21.6604 27.1703 21.6823 27.0836 21.7042 26.9972C21.8596 26.52 22.0619 26.0501 22.3385 25.6366C22.6179 25.2285 22.9295 24.8426 23.2893 24.5421C23.4578 24.3753 23.6517 24.2533 23.8296 24.1158C24.0147 23.9908 24.2042 23.8839 24.3864 23.7785C24.5768 23.6935 24.7564 23.5943 24.9373 23.5274C25.1195 23.4666 25.2917 23.3936 25.4594 23.3486C25.6296 23.3068 25.7886 23.2674 25.9357 23.2313C26.0852 23.2064 26.2242 23.1895 26.3501 23.1705C26.4137 23.1617 26.4735 23.153 26.5297 23.1454C26.5863 23.1402 26.6394 23.1405 26.6888 23.138C26.7886 23.134 26.8732 23.131 26.9417 23.1284C27.0801 23.1226 27.1538 23.1197 27.1538 23.1197L27.2052 22.672C27.2052 22.672 27.127 22.6595 26.9806 22.636C26.9071 22.6241 26.8161 22.6097 26.7093 22.5928C26.6556 22.5847 26.5978 22.5739 26.5361 22.5665C26.4741 22.563 26.4079 22.5596 26.338 22.5554C26.1983 22.5484 26.0423 22.5365 25.872 22.5317C25.7012 22.5394 25.5164 22.5478 25.3192 22.5563C25.1212 22.5697 24.9136 22.6103 24.6905 22.6404C24.4688 22.6761 24.2425 22.7452 23.9993 22.8024C23.7651 22.8807 23.5165 22.9631 23.2672 23.0674C23.0251 23.1846 22.7608 23.2904 22.517 23.4476C22.0056 23.7288 21.5212 24.1213 21.0578 24.5753C20.5971 25.0348 20.1998 25.5913 19.8589 26.2019C19.7824 26.3597 19.7059 26.5183 19.6288 26.6771C19.5888 26.7545 19.554 26.8401 19.5231 26.9321L19.4265 27.2034L19.3322 27.4779C19.3149 27.5275 19.3044 27.5651 19.2954 27.6006L19.2658 27.7112L19.206 27.9323L19.1762 28.0432L19.1616 28.0985L19.1539 28.126L19.1504 28.1401L19.1484 28.1471C19.1481 28.1506 19.1479 28.1524 19.1475 28.1532C19.1475 28.1528 19.1479 28.1509 19.1479 28.1492C19.1462 28.1567 19.1437 28.1746 19.1382 28.2129C19.0107 28.9259 18.9616 29.6663 19.0328 30.3984C19.1163 31.1238 19.2805 31.8419 19.5527 32.5004C19.6773 32.8715 19.8509 33.2205 20.0657 33.5394C20.4188 34.0642 20.8831 34.5081 21.4248 34.8372C21.4277 34.839 21.4309 34.8407 21.4338 34.8425C21.5206 34.895 21.6097 34.9449 21.7005 34.9912C21.7037 34.9928 21.7072 34.9947 21.7104 34.9963C22.3035 35.2983 22.9746 35.4683 23.6857 35.4683C24.374 35.4683 25.0252 35.3088 25.604 35.0247C25.6759 34.9896 25.7465 34.9522 25.8163 34.9132C27.1468 34.1667 28.0462 32.7425 28.0462 31.1078C28.0461 28.6997 26.0937 26.7475 23.6856 26.7475Z" fill="#4A4D53"/>
</g>
<defs>
<clipPath id="clip0">
<rect width="20" height="20" fill="white" transform="matrix(1 0 0 -1 19 39)"/>
</clipPath>
</defs>
</svg>
