<svg width="56" height="56" viewBox="0 0 56 56" fill="none" xmlns="http://www.w3.org/2000/svg">
<circle cx="28" cy="28" r="28" fill="#F8F8F8"/>
<path d="M16.3877 16.3871V27.2258H22.5812V25.6774H19.4845C19.4845 24.8219 18.7916 24.129 17.9361 24.129V19.4839C18.7916 19.4839 19.4845 18.7909 19.4845 17.9355H36.5167C36.5167 17.9548 36.5167 17.9742 36.5205 17.9935C36.5477 18.8219 37.2289 19.4839 38.0651 19.4839V24.129C37.2096 24.129 36.5167 24.8219 36.5167 25.6774H24.9038V27.2258H39.6135V16.3871H16.3877Z" fill="#F9DD9D"/>
<path d="M38.0645 19.4839V24.129C37.209 24.129 36.5161 24.822 36.5161 25.6774H28C30.1368 25.6774 31.871 23.9432 31.871 21.8065C31.871 19.6697 30.1368 17.9355 28 17.9355H36.5161C36.5161 17.9548 36.5161 17.9742 36.5199 17.9935C36.5471 18.822 37.2283 19.4839 38.0645 19.4839Z" fill="#F9DD9D"/>
<path d="M19.4839 17.9355H28.0001C25.8633 17.9355 24.1291 19.6697 24.1291 21.8065C24.1291 21.9652 24.1368 22.12 24.1561 22.271C24.0285 22.2206 23.889 22.1936 23.742 22.1936C23.4207 22.1936 23.1304 22.3251 22.9213 22.5342C22.7123 22.7432 22.5807 23.0335 22.5807 23.3548V25.6774H19.4839C19.4839 24.822 18.791 24.129 17.9355 24.129V19.4839C18.791 19.4839 19.4839 18.791 19.4839 17.9355Z" fill="#F9DD9D"/>
<path d="M28.0001 25.6774H24.9033V24.1252C25.6078 25.0697 26.7343 25.6774 28.0001 25.6774Z" fill="#FFEAA7"/>
<path d="M29.7454 37.2903H23.3545V34.1935H28.7738C28.7738 35.3433 29.1339 36.4116 29.7454 37.2903Z" fill="#E6E9ED"/>
<path d="M24.9036 27.2258H33.4198V28.8284C30.7953 29.2038 28.7746 31.4646 28.7746 34.1935H24.1294V33.0323L23.0997 31.4916C22.7631 30.9807 22.5811 30.3846 22.5811 29.7729V23.3548C22.5811 23.0335 22.7126 22.7432 22.9217 22.5341C23.1307 22.3251 23.421 22.1935 23.7423 22.1935C23.8894 22.1935 24.0289 22.2206 24.1565 22.271C24.594 22.4374 24.9036 22.8594 24.9036 23.3548V27.2258Z" fill="#F0D0B4"/>
<path d="M34.1938 28.7742C37.186 28.7742 39.6131 31.2013 39.6131 34.1935C39.6131 37.1858 37.186 39.6129 34.1938 39.6129C32.3551 39.6129 30.7254 38.6954 29.7459 37.2903C29.1345 36.4116 28.7744 35.3433 28.7744 34.1935C28.7744 31.4646 30.7951 29.2038 33.4196 28.8284C33.6712 28.7934 33.9305 28.7742 34.1938 28.7742ZM35.3551 34.1935L37.6776 31.8709L36.5163 30.7097L34.1938 33.0322L31.8712 30.7097L30.7099 31.8709L33.0325 34.1935L30.7099 36.5161L31.8712 37.6774L34.1938 35.3548L36.5163 37.6774L37.6776 36.5161L35.3551 34.1935Z" fill="#FF826E"/>
<path d="M37.6777 31.871L35.3551 34.1936L37.6777 36.5162L36.5164 37.6775L34.1938 35.3549L31.8713 37.6775L30.71 36.5162L33.0325 34.1936L30.71 31.871L31.8713 30.7097L34.1938 33.0323L36.5164 30.7097L37.6777 31.871Z" fill="#E6E9ED"/>
<path d="M27.9999 17.9355C30.1367 17.9355 31.8708 19.6697 31.8708 21.8065C31.8708 23.9432 30.1367 25.6774 27.9999 25.6774C26.7341 25.6774 25.6075 25.0697 24.9031 24.1253V23.3548C24.9031 22.8594 24.5935 22.4374 24.1559 22.271C24.1367 22.12 24.1289 21.9652 24.1289 21.8065C24.1289 19.6697 25.8631 17.9355 27.9999 17.9355Z" fill="#F9DD9D"/>
<path d="M28.0002 22.9678C27.787 22.9678 27.6131 22.7939 27.6131 22.5807H26.8389C26.8389 23.0846 27.1636 23.5104 27.6131 23.6707V24.5162H28.3873V23.6707C28.8367 23.5104 29.1614 23.0846 29.1614 22.5807C29.1614 21.9405 28.6403 21.4194 28.0002 21.4194C27.787 21.4194 27.6131 21.2455 27.6131 21.0323C27.6131 20.8191 27.787 20.6452 28.0002 20.6452C28.2134 20.6452 28.3873 20.8191 28.3873 21.0323H29.1614C29.1614 20.5284 28.8367 20.1025 28.3873 19.9423V19.0968H27.6131V19.9423C27.1636 20.1025 26.8389 20.5284 26.8389 21.0323C26.8389 21.6725 27.36 22.1936 28.0002 22.1936C28.2134 22.1936 28.3873 22.3675 28.3873 22.5807C28.3873 22.7939 28.2134 22.9678 28.0002 22.9678Z" fill="#2B2B2B"/>
<path d="M40 27.6129V16H16V27.6129H22.1935V29.7722C22.1935 30.4623 22.396 31.1308 22.7789 31.7048L23.7419 33.1496V33.8065H22.9677V37.6774H29.5595C30.6203 39.0844 32.2998 40 34.1935 40C37.3952 40 40 37.3952 40 34.1935C40 30.9919 37.3952 28.3871 34.1935 28.3871C34.0628 28.3871 33.935 28.3982 33.8065 28.4068V27.6129H40ZM16.7742 26.8387V16.7742H39.2258V26.8387H25.2903V26.0645H36.9032V25.6774C36.9032 25.0372 37.4243 24.5161 38.0645 24.5161H38.4516V19.0968H38.0645C37.4243 19.0968 36.9032 18.5757 36.9032 17.9355V17.5484H19.0968V17.9355C19.0968 18.5757 18.5757 19.0968 17.9355 19.0968H17.5484V24.5161H17.9355C18.5757 24.5161 19.0968 25.0372 19.0968 25.6774V26.0645H22.1935V26.8387H16.7742ZM22.1935 23.3548V25.2903H19.8318C19.6778 24.5331 19.0798 23.9351 18.3226 23.7811V19.8318C19.0798 19.6778 19.6778 19.0798 19.8318 18.3226H25.5593C24.4623 19.0938 23.7419 20.3664 23.7419 21.8065C22.888 21.8065 22.1935 22.5009 22.1935 23.3548ZM24.5294 22.0291C24.5246 21.9546 24.5161 21.8807 24.5161 21.8065C24.5161 19.8857 26.0793 18.3226 28 18.3226C29.9207 18.3226 31.4839 19.8857 31.4839 21.8065C31.4839 23.7272 29.9207 25.2903 28 25.2903C26.9343 25.2903 25.9558 24.8153 25.2903 23.989V23.3548C25.2903 22.7897 24.9826 22.2992 24.5294 22.0291ZM30.4407 18.3226H36.1682C36.3222 19.0798 36.9202 19.6778 37.6774 19.8318V23.7807C36.9202 23.9347 36.3222 24.5328 36.1682 25.2899H30.4407C31.5377 24.5192 32.2581 23.2465 32.2581 21.8065C32.2581 20.3664 31.5377 19.0938 30.4407 18.3226ZM25.5563 25.2903H25.2903V25.093C25.3759 25.1637 25.4661 25.2268 25.5563 25.2903ZM23.7419 36.9032V34.5806H28.4068C28.4621 35.4148 28.6903 36.2018 29.0622 36.9032H23.7419ZM39.2258 34.1935C39.2258 36.9682 36.9682 39.2258 34.1935 39.2258C31.4188 39.2258 29.1613 36.9682 29.1613 34.1935C29.1613 31.4188 31.4188 29.1613 34.1935 29.1613C36.9682 29.1613 39.2258 31.4188 39.2258 34.1935ZM33.0323 28.5039C30.5084 29.0184 28.5814 31.1765 28.4068 33.8065H24.5161V32.9149L23.4229 31.2752C23.1254 30.8286 22.9677 30.3086 22.9677 29.7722V23.3548C22.9677 22.9279 23.315 22.5806 23.7419 22.5806C24.1689 22.5806 24.5161 22.9279 24.5161 23.3548V29.1613H24.9032C25.9704 29.1613 26.8387 30.0296 26.8387 31.0968H27.6129C27.6129 29.7338 26.6019 28.6031 25.2903 28.4145V27.6129H33.0323V28.5039Z" fill="#2B2B2B"/>
<path d="M17.5488 17.5484H18.323V18.3226H17.5488V17.5484Z" fill="black"/>
<path d="M17.5488 25.2903H18.323V26.0645H17.5488V25.2903Z" fill="black"/>
<path d="M37.6777 17.5484H38.4519V18.3226H37.6777V17.5484Z" fill="black"/>
<path d="M37.6777 25.2903H38.4519V26.0645H37.6777V25.2903Z" fill="black"/>
</svg>
