<svg width="14" height="17" viewBox="0 0 14 17" fill="none" xmlns="http://www.w3.org/2000/svg">
<path d="M7.0909 9.37566C8.35247 9.37566 9.37517 8.35296 9.37517 7.09139C9.37517 5.82983 8.35247 4.80713 7.0909 4.80713C5.82934 4.80713 4.80664 5.82983 4.80664 7.09139C4.80664 8.35296 5.82934 9.37566 7.0909 9.37566Z" stroke="#69BB37" stroke-linecap="square"/>
<path d="M7.09137 16C11.1269 12.4213 13.1827 9.37563 13.1827 7.09137C13.1827 5.47584 12.541 3.92647 11.3986 2.78412C10.2563 1.64177 8.7069 1 7.09137 1C5.47584 1 3.92647 1.64177 2.78412 2.78412C1.64177 3.92647 1 5.47584 1 7.09137C1 9.37563 3.05584 12.3452 7.09137 16Z" stroke="#69BB37" stroke-linecap="square"/>
</svg>
