<svg width="144" height="41" viewBox="0 0 144 41" fill="none" xmlns="http://www.w3.org/2000/svg">
<rect width="144" height="41" fill="white"/>
<rect width="1" height="41" transform="matrix(-1 0 0 1 72 0)" fill="#F8F8F8"/>
<g clip-path="url(#clip0)">
<path d="M30.7334 25.597L32.3588 16.4541H34.8985L33.3239 25.597H30.7334Z" fill="#3C58BF"/>
<path d="M30.7334 25.597L32.8159 16.4541H34.8985L33.3239 25.597H30.7334Z" fill="#293688"/>
<path d="M42.5175 16.5553C42.0096 16.3521 41.1969 16.1489 40.181 16.1489C37.6413 16.1489 35.8128 17.4188 35.8128 19.2473C35.8128 20.6188 37.0826 21.3299 38.0985 21.787C39.1143 22.2442 39.4191 22.5489 39.4191 22.9553C39.4191 23.5648 38.6064 23.8696 37.8953 23.8696C36.8794 23.8696 36.3207 23.7172 35.4572 23.3616L35.1016 23.2092L34.7461 25.2918C35.3556 25.5457 36.4731 25.7997 37.6413 25.7997C40.3334 25.7997 42.1112 24.5299 42.1112 22.5997C42.1112 21.5331 41.4509 20.7204 39.927 20.06C39.0128 19.6029 38.454 19.3489 38.454 18.8918C38.454 18.4854 38.9112 18.0791 39.927 18.0791C40.7905 18.0791 41.4001 18.2315 41.8572 18.4346L42.1112 18.5362L42.5175 16.5553Z" fill="#3C58BF"/>
<path d="M42.5175 16.5553C42.0096 16.3521 41.1969 16.1489 40.181 16.1489C37.6413 16.1489 36.2699 17.4188 36.2699 19.2473C36.2699 20.6188 37.0826 21.3299 38.0985 21.787C39.1143 22.2442 39.4191 22.5489 39.4191 22.9553C39.4191 23.5648 38.6064 23.8696 37.8953 23.8696C36.8794 23.8696 36.3207 23.7172 35.4572 23.3616L35.1016 23.2092L34.7461 25.2918C35.3556 25.5457 36.4731 25.7997 37.6413 25.7997C40.3334 25.7997 42.1112 24.5299 42.1112 22.5997C42.1112 21.5331 41.4509 20.7204 39.927 20.06C39.0128 19.6029 38.454 19.3489 38.454 18.8918C38.454 18.4854 38.9112 18.0791 39.927 18.0791C40.7905 18.0791 41.4001 18.2315 41.8572 18.4346L42.1112 18.5362L42.5175 16.5553Z" fill="#293688"/>
<path d="M46.886 16.4541C46.2765 16.4541 45.8193 16.5049 45.5654 17.1144L41.7559 25.597H44.4987L45.0066 24.0731H48.2574L48.5622 25.597H51.0003L48.867 16.4541H46.886ZM45.7178 22.5493C45.8701 22.0922 46.7336 19.8573 46.7336 19.8573C46.7336 19.8573 46.9368 19.2985 47.0892 18.943L47.2416 19.8065C47.2416 19.8065 47.7495 22.0922 47.8511 22.6001H45.7178V22.5493Z" fill="#3C58BF"/>
<path d="M47.4955 16.4541C46.886 16.4541 46.4289 16.5049 46.1749 17.1144L41.7559 25.597H44.4987L45.0066 24.0731H48.2574L48.5622 25.597H51.0003L48.867 16.4541H47.4955ZM45.7178 22.5493C45.9209 22.0414 46.7336 19.8573 46.7336 19.8573C46.7336 19.8573 46.9368 19.2985 47.0892 18.943L47.2416 19.8065C47.2416 19.8065 47.7495 22.0922 47.8511 22.6001H45.7178V22.5493Z" fill="#293688"/>
<path d="M26.0605 22.8541L25.8065 21.5334C25.3494 20.0096 23.8764 18.3335 22.251 17.5208L24.5367 25.6477H27.2795L31.3938 16.5049H28.651L26.0605 22.8541Z" fill="#3C58BF"/>
<path d="M26.0605 22.8541L25.8065 21.5334C25.3494 20.0096 23.8764 18.3335 22.251 17.5208L24.5367 25.6477H27.2795L31.3938 16.5049H29.1589L26.0605 22.8541Z" fill="#293688"/>
<path d="M19 16.4541L19.4571 16.5557C22.7079 17.3176 24.9429 19.2478 25.8063 21.5335L24.8921 17.216C24.7397 16.6065 24.2825 16.4541 23.7238 16.4541H19Z" fill="#FFBC00"/>
<path d="M19 16.4541C22.2508 17.216 24.9429 19.197 25.8063 21.4827L24.9429 17.8763C24.7905 17.2668 24.2825 16.9112 23.7238 16.9112L19 16.4541Z" fill="#F7981D"/>
<path d="M19 16.4541C22.2508 17.216 24.9429 19.197 25.8063 21.4827L25.1968 19.5017C25.0444 18.8922 24.8413 18.2827 24.1302 18.0287L19 16.4541Z" fill="#ED7C00"/>
<path d="M28.6002 22.5491L26.8732 20.8221L26.0605 22.7523L25.8573 21.4824C25.4002 19.9586 23.9272 18.2824 22.3018 17.4697L24.5875 25.5967H27.3303L28.6002 22.5491Z" fill="#051244"/>
<path d="M33.3239 25.5972L31.1397 23.3623L30.7334 25.5972H33.3239Z" fill="#051244"/>
<path d="M39.1651 22.4478C39.3683 22.6509 39.4699 22.8033 39.4191 23.0065C39.4191 23.616 38.6064 23.9208 37.8953 23.9208C36.8794 23.9208 36.3207 23.7684 35.4572 23.4128L35.1016 23.2605L34.7461 25.343C35.3556 25.597 36.4731 25.8509 37.6413 25.8509C39.2667 25.8509 40.5874 25.3938 41.3493 24.5811L39.1651 22.4478Z" fill="#051244"/>
<path d="M42.1113 25.5964H44.4986L45.0066 24.0725H48.2574L48.5621 25.5964H51.0002L50.1367 21.8884L47.0891 18.9424L47.2415 19.7551C47.2415 19.7551 47.7494 22.0408 47.851 22.5487H45.7177C45.9209 22.0408 46.7336 19.8567 46.7336 19.8567C46.7336 19.8567 46.9367 19.2979 47.0891 18.9424" fill="#051244"/>
</g>
<g clip-path="url(#clip1)">
<path d="M124 21.0004C124 26.2829 119.733 30.6004 114.4 30.6004C109.117 30.6004 104.8 26.2829 104.8 21.0004C104.8 15.7179 109.066 11.4004 114.349 11.4004C119.733 11.4004 124 15.7179 124 21.0004Z" fill="#FFB600"/>
<path d="M114.4 11.4004C119.682 11.4004 124 15.7179 124 21.0004C124 26.2829 119.733 30.6004 114.4 30.6004C109.117 30.6004 104.8 26.2829 104.8 21.0004" fill="#F7981D"/>
<path d="M114.4 11.4004C119.683 11.4004 124 15.7179 124 21.0004C124 26.2829 119.734 30.6004 114.4 30.6004" fill="#FF8500"/>
<path d="M101.498 11.4004C96.2667 11.4512 92 15.7179 92 21.0004C92 26.2829 96.2667 30.6004 101.6 30.6004C104.089 30.6004 106.324 29.6353 108.051 28.1115C108.406 27.8067 108.711 27.4512 109.016 27.0956H107.035C106.781 26.7909 106.527 26.4353 106.324 26.1305H109.727C109.93 25.8258 110.133 25.4702 110.286 25.1147H105.765C105.613 24.8099 105.46 24.4544 105.359 24.0988H110.641C110.946 23.1337 111.149 22.1179 111.149 21.0512C111.149 20.3401 111.048 19.6798 110.946 19.0194H105.054C105.105 18.6639 105.206 18.3591 105.308 18.0036H110.59C110.489 17.648 110.337 17.2925 110.184 16.9877H105.714C105.867 16.6321 106.07 16.3274 106.273 15.9718H109.676C109.473 15.6163 109.219 15.2607 108.914 14.9559H107.035C107.34 14.6004 107.644 14.2956 108 13.9909C106.324 12.4163 104.038 11.502 101.549 11.502C101.549 11.4004 101.549 11.4004 101.498 11.4004Z" fill="#FF5050"/>
<path d="M92 20.9999C92 26.2824 96.2667 30.5999 101.6 30.5999C104.089 30.5999 106.324 29.6348 108.051 28.111C108.406 27.8062 108.711 27.4507 109.016 27.0951H107.035C106.781 26.7904 106.527 26.4348 106.324 26.13H109.727C109.93 25.8253 110.133 25.4697 110.286 25.1142H105.765C105.613 24.8094 105.46 24.4538 105.359 24.0983H110.641C110.946 23.1332 111.149 22.1173 111.149 21.0507C111.149 20.3396 111.048 19.6792 110.946 19.0189H105.054C105.105 18.6634 105.206 18.3586 105.308 18.0031H110.59C110.489 17.6475 110.337 17.2919 110.184 16.9872H105.714C105.867 16.6316 106.07 16.3269 106.273 15.9713H109.676C109.473 15.6158 109.219 15.2602 108.914 14.9554H107.035C107.34 14.5999 107.644 14.2951 108 13.9904C106.324 12.4158 104.038 11.5015 101.549 11.5015H101.498" fill="#E52836"/>
<path d="M101.6 30.5999C104.089 30.5999 106.323 29.6348 108.05 28.111C108.406 27.8062 108.711 27.4507 109.016 27.0951H107.035C106.781 26.7904 106.527 26.4348 106.323 26.13H109.727C109.93 25.8253 110.133 25.4697 110.285 25.1142H105.765C105.612 24.8094 105.46 24.4538 105.358 24.0983H110.641C110.946 23.1332 111.149 22.1173 111.149 21.0507C111.149 20.3396 111.047 19.6792 110.946 19.0189H105.054C105.104 18.6634 105.206 18.3586 105.308 18.0031H110.59C110.489 17.6475 110.336 17.2919 110.184 16.9872H105.714C105.866 16.6316 106.069 16.3269 106.273 15.9713H109.676C109.473 15.6158 109.219 15.2602 108.914 14.9554H107.035C107.339 14.5999 107.644 14.2951 108 13.9904C106.323 12.4158 104.038 11.5015 101.549 11.5015H101.498" fill="#CB2026"/>
<path d="M105.003 23.4381L105.156 22.5746C105.105 22.5746 105.003 22.6254 104.902 22.6254C104.546 22.6254 104.495 22.4222 104.546 22.3206L104.851 20.5429H105.41L105.562 19.5778H105.054L105.156 18.9683H104.14C104.14 18.9683 103.53 22.3206 103.53 22.727C103.53 23.3365 103.886 23.5905 104.343 23.5905C104.648 23.5905 104.902 23.4889 105.003 23.4381Z" fill="white"/>
<path d="M105.358 21.8127C105.358 23.2349 106.323 23.5904 107.136 23.5904C107.898 23.5904 108.203 23.4381 108.203 23.4381L108.406 22.473C108.406 22.473 107.847 22.7269 107.339 22.7269C106.222 22.7269 106.425 21.9142 106.425 21.9142H108.508C108.508 21.9142 108.66 21.2539 108.66 21C108.66 20.3396 108.304 19.5269 107.187 19.5269C106.12 19.4253 105.358 20.5428 105.358 21.8127ZM107.136 20.3396C107.695 20.3396 107.593 21 107.593 21.0507H106.476C106.476 21 106.577 20.3396 107.136 20.3396Z" fill="white"/>
<path d="M113.587 23.4382L113.79 22.3207C113.79 22.3207 113.282 22.5747 112.926 22.5747C112.215 22.5747 111.91 22.016 111.91 21.4065C111.91 20.1874 112.52 19.5271 113.231 19.5271C113.739 19.5271 114.145 19.8319 114.145 19.8319L114.298 18.7652C114.298 18.7652 113.688 18.5112 113.129 18.5112C111.961 18.5112 110.793 19.5271 110.793 21.4573C110.793 22.7271 111.402 23.5906 112.622 23.5906C113.028 23.5906 113.587 23.4382 113.587 23.4382Z" fill="white"/>
<path d="M99.4155 19.4258C98.7044 19.4258 98.1965 19.629 98.1965 19.629L98.0441 20.4925C98.0441 20.4925 98.5012 20.2893 99.1615 20.2893C99.5171 20.2893 99.8219 20.3401 99.8219 20.6448C99.8219 20.848 99.7711 20.8988 99.7711 20.8988C99.7711 20.8988 99.4663 20.8988 99.3139 20.8988C98.4504 20.8988 97.4854 21.2544 97.4854 22.4226C97.4854 23.3369 98.0949 23.5401 98.4504 23.5401C99.1615 23.5401 99.4663 23.0829 99.5171 23.0829L99.4663 23.4893H100.381L100.787 20.6956C100.787 19.4766 99.7711 19.4258 99.4155 19.4258ZM99.6187 21.7115C99.6187 21.8639 99.5171 22.6766 98.9076 22.6766C98.6028 22.6766 98.5012 22.4226 98.5012 22.2702C98.5012 22.0163 98.6536 21.6607 99.4155 21.6607C99.5679 21.7115 99.6187 21.7115 99.6187 21.7115Z" fill="white"/>
<path d="M101.752 23.5396C102.006 23.5396 103.276 23.5904 103.276 22.219C103.276 20.9491 102.057 21.2031 102.057 20.6951C102.057 20.4412 102.26 20.3396 102.616 20.3396C102.768 20.3396 103.327 20.3904 103.327 20.3904L103.479 19.4761C103.479 19.4761 103.124 19.3745 102.514 19.3745C101.752 19.3745 100.99 19.6793 100.99 20.6951C100.99 21.8634 102.26 21.7618 102.26 22.219C102.26 22.5237 101.905 22.5745 101.651 22.5745C101.194 22.5745 100.736 22.4221 100.736 22.4221L100.584 23.3364C100.635 23.438 100.889 23.5396 101.752 23.5396Z" fill="white"/>
<path d="M122.019 18.6128L121.816 19.9842C121.816 19.9842 121.41 19.4763 120.851 19.4763C119.937 19.4763 119.124 20.5937 119.124 21.9144C119.124 22.7271 119.53 23.5906 120.394 23.5906C121.003 23.5906 121.359 23.1842 121.359 23.1842L121.308 23.5398H122.324L123.086 18.6636L122.019 18.6128ZM121.562 21.3049C121.562 21.8636 121.308 22.5747 120.749 22.5747C120.394 22.5747 120.191 22.2699 120.191 21.762C120.191 20.9493 120.546 20.4414 121.003 20.4414C121.359 20.4414 121.562 20.6953 121.562 21.3049Z" fill="white"/>
<path d="M93.8791 23.489L94.4887 19.8318L94.5903 23.489H95.3014L96.622 19.8318L96.0633 23.489H97.1299L97.9426 18.6128H96.2664L95.2506 21.6096L95.1998 18.6128H93.7268L92.9141 23.489H93.8791Z" fill="white"/>
<path d="M109.625 23.4893C109.93 21.8131 109.981 20.4416 110.692 20.6956C110.794 20.0353 110.946 19.7813 111.047 19.5273C111.047 19.5273 110.997 19.5273 110.844 19.5273C110.387 19.5273 110.032 20.1369 110.032 20.1369L110.133 19.5781H109.168L108.508 23.5401H109.625V23.4893Z" fill="white"/>
<path d="M115.923 19.4258C115.212 19.4258 114.704 19.629 114.704 19.629L114.552 20.4925C114.552 20.4925 115.009 20.2893 115.669 20.2893C116.025 20.2893 116.33 20.3401 116.33 20.6448C116.33 20.848 116.279 20.8988 116.279 20.8988C116.279 20.8988 115.974 20.8988 115.822 20.8988C114.958 20.8988 113.993 21.2544 113.993 22.4226C113.993 23.3369 114.603 23.5401 114.958 23.5401C115.669 23.5401 115.974 23.0829 116.025 23.0829L115.974 23.4893H116.888L117.295 20.6956C117.346 19.4766 116.279 19.4258 115.923 19.4258ZM116.177 21.7115C116.177 21.8639 116.076 22.6766 115.466 22.6766C115.161 22.6766 115.06 22.4226 115.06 22.2702C115.06 22.0163 115.212 21.6607 115.974 21.6607C116.127 21.7115 116.126 21.7115 116.177 21.7115Z" fill="white"/>
<path d="M118.158 23.4893C118.463 21.8131 118.514 20.4416 119.225 20.6956C119.327 20.0353 119.479 19.7813 119.581 19.5273C119.581 19.5273 119.53 19.5273 119.378 19.5273C118.92 19.5273 118.565 20.1369 118.565 20.1369L118.666 19.5781H117.701L117.041 23.5401H118.158V23.4893Z" fill="white"/>
<path d="M103.429 22.727C103.429 23.3365 103.784 23.5905 104.241 23.5905C104.597 23.5905 104.902 23.4889 105.003 23.4381L105.156 22.5746C105.105 22.5746 105.003 22.6254 104.902 22.6254C104.546 22.6254 104.495 22.4222 104.546 22.3206L104.851 20.5429H105.41L105.562 19.5778H105.054L105.156 18.9683" fill="#DCE5E5"/>
<path d="M105.866 21.8127C105.866 23.2349 106.323 23.5904 107.136 23.5904C107.898 23.5904 108.203 23.4381 108.203 23.4381L108.406 22.473C108.406 22.473 107.847 22.7269 107.339 22.7269C106.222 22.7269 106.425 21.9142 106.425 21.9142H108.507C108.507 21.9142 108.66 21.2539 108.66 21C108.66 20.3396 108.304 19.5269 107.187 19.5269C106.12 19.4253 105.866 20.5428 105.866 21.8127ZM107.136 20.3396C107.695 20.3396 107.796 21 107.796 21.0507H106.476C106.476 21 106.577 20.3396 107.136 20.3396Z" fill="#DCE5E5"/>
<path d="M113.587 23.4382L113.791 22.3207C113.791 22.3207 113.283 22.5747 112.927 22.5747C112.216 22.5747 111.911 22.016 111.911 21.4065C111.911 20.1874 112.521 19.5271 113.232 19.5271C113.74 19.5271 114.146 19.8319 114.146 19.8319L114.299 18.7652C114.299 18.7652 113.689 18.5112 113.13 18.5112C111.962 18.5112 111.302 19.5271 111.302 21.4573C111.302 22.7271 111.403 23.5906 112.622 23.5906C113.029 23.5906 113.587 23.4382 113.587 23.4382Z" fill="#DCE5E5"/>
<path d="M98.0441 20.5432C98.0441 20.5432 98.5012 20.34 99.1615 20.34C99.5171 20.34 99.8219 20.3908 99.8219 20.6956C99.8219 20.8988 99.7711 20.9496 99.7711 20.9496C99.7711 20.9496 99.4663 20.9496 99.3139 20.9496C98.4504 20.9496 97.4854 21.3051 97.4854 22.4734C97.4854 23.3876 98.0949 23.5908 98.4504 23.5908C99.1615 23.5908 99.4663 23.1337 99.5171 23.1337L99.4663 23.54H100.381L100.787 20.7464C100.787 19.5781 99.7711 19.5273 99.3647 19.5273L98.0441 20.5432ZM100.127 21.7115C100.127 21.8638 99.5171 22.6765 98.9076 22.6765C98.6028 22.6765 98.5012 22.4226 98.5012 22.2702C98.5012 22.0162 98.6536 21.6607 99.4155 21.6607C99.5679 21.7115 100.127 21.7115 100.127 21.7115Z" fill="#DCE5E5"/>
<path d="M100.635 23.438C100.635 23.438 100.94 23.5396 101.803 23.5396C102.057 23.5396 103.327 23.5904 103.327 22.219C103.327 20.9491 102.108 21.2031 102.108 20.6951C102.108 20.4412 102.311 20.3396 102.667 20.3396C102.819 20.3396 103.378 20.3904 103.378 20.3904L103.53 19.4761C103.53 19.4761 103.174 19.3745 102.565 19.3745C101.803 19.3745 101.549 19.6793 101.549 20.6951C101.549 21.8634 102.311 21.7618 102.311 22.219C102.311 22.5237 101.955 22.5745 101.701 22.5745" fill="#DCE5E5"/>
<path d="M121.816 19.9842C121.816 19.9842 121.409 19.4763 120.851 19.4763C119.936 19.4763 119.632 20.5937 119.632 21.9144C119.632 22.7271 119.53 23.5905 120.394 23.5905C121.003 23.5905 121.359 23.1842 121.359 23.1842L121.308 23.5398H122.324L123.086 18.6636L121.816 19.9842ZM121.765 21.3048C121.765 21.8636 121.308 22.5747 120.749 22.5747C120.394 22.5747 120.19 22.2699 120.19 21.762C120.19 20.9493 120.546 20.4413 121.003 20.4413C121.359 20.4413 121.765 20.6953 121.765 21.3048Z" fill="#DCE5E5"/>
<path d="M93.8791 23.489L94.4887 19.8318L94.5903 23.489H95.3014L96.622 19.8318L96.0633 23.489H97.1299L97.9426 18.6128H96.6728L95.2506 21.6096L95.1998 18.6128H94.641L92.9141 23.489H93.8791Z" fill="#DCE5E5"/>
<path d="M108.559 23.4893H109.625C109.93 21.8131 109.981 20.4416 110.692 20.6956C110.794 20.0353 110.946 19.7813 111.047 19.5273C111.047 19.5273 110.997 19.5273 110.844 19.5273C110.387 19.5273 110.032 20.1369 110.032 20.1369L110.133 19.5781" fill="#DCE5E5"/>
<path d="M114.552 20.5432C114.552 20.5432 115.009 20.34 115.669 20.34C116.025 20.34 116.33 20.3908 116.33 20.6956C116.33 20.8988 116.279 20.9496 116.279 20.9496C116.279 20.9496 115.974 20.9496 115.822 20.9496C114.958 20.9496 113.993 21.3051 113.993 22.4734C113.993 23.3876 114.603 23.5908 114.958 23.5908C115.669 23.5908 115.974 23.1337 116.025 23.1337L115.974 23.54H116.888L117.295 20.7464C117.295 19.5781 116.279 19.5273 115.873 19.5273L114.552 20.5432ZM116.634 21.7115C116.634 21.8638 116.025 22.6765 115.415 22.6765C115.111 22.6765 115.009 22.4226 115.009 22.2702C115.009 22.0162 115.161 21.6607 115.923 21.6607C116.126 21.7115 116.634 21.7115 116.634 21.7115Z" fill="#DCE5E5"/>
<path d="M117.092 23.4893H118.158C118.463 21.8131 118.514 20.4416 119.225 20.6956C119.327 20.0353 119.479 19.7813 119.581 19.5273C119.581 19.5273 119.53 19.5273 119.378 19.5273C118.92 19.5273 118.565 20.1369 118.565 20.1369L118.666 19.5781" fill="#DCE5E5"/>
</g>
<defs>
<clipPath id="clip0">
<rect width="32" height="32" fill="white" transform="translate(19 5)"/>
</clipPath>
<clipPath id="clip1">
<rect width="32" height="32" fill="white" transform="translate(92 5)"/>
</clipPath>
</defs>
</svg>
