<svg width="24" height="24" viewBox="0 0 24 24" fill="none" xmlns="http://www.w3.org/2000/svg">
<rect width="24" height="24" rx="3" fill="url(#paint0_linear)"/>
<path d="M8.82353 5.25C6.84381 5.25 5.25 6.84381 5.25 8.82352V15.1765C5.25 17.1562 6.84381 18.75 8.82353 18.75H15.1765C17.1562 18.75 18.75 17.1562 18.75 15.1765V8.82352C18.75 6.84381 17.1562 5.25 15.1765 5.25H8.82353ZM15.9706 7.23529C16.4092 7.23529 16.7647 7.59081 16.7647 8.0294C16.7647 8.46797 16.4092 8.82352 15.9706 8.82352C15.532 8.82352 15.1765 8.46797 15.1765 8.0294C15.1765 7.59081 15.532 7.23529 15.9706 7.23529ZM12 8.22793C14.0786 8.22793 15.7721 9.92146 15.7721 12C15.7721 14.0785 14.0786 15.7721 12 15.7721C9.92144 15.7721 8.22794 14.0785 8.22794 12C8.22794 9.92146 9.92144 8.22793 12 8.22793ZM12 9.38602C10.5522 9.38602 9.38603 10.5522 9.38603 12C9.38603 13.4478 10.5522 14.614 12 14.614C13.4478 14.614 14.614 13.4478 14.614 12C14.614 10.5522 13.4478 9.38602 12 9.38602Z" fill="white"/>
<defs>
<linearGradient id="paint0_linear" x1="24" y1="2.5" x2="-5.66244e-07" y2="24" gradientUnits="userSpaceOnUse">
<stop stop-color="#9343AB"/>
<stop offset="1" stop-color="#F9AA45"/>
</linearGradient>
</defs>
</svg>
