<svg width="16" height="11" viewBox="0 0 16 11" fill="none" xmlns="http://www.w3.org/2000/svg">
<path d="M7.56398 2.37474C6.79194 2.37474 6.12741 2.65326 5.57037 3.21029C5.02311 3.75756 4.74947 4.41721 4.74947 5.18924C4.74947 5.97105 5.02311 6.63558 5.57037 7.18285C6.12741 7.73011 6.79194 8.00374 7.56398 8.00374C8.34578 8.00374 9.01032 7.73011 9.55758 7.18285C10.1048 6.63558 10.3785 5.97105 10.3785 5.18924C10.3785 4.41721 10.1048 3.75756 9.55758 3.21029C9.01032 2.65326 8.34578 2.37474 7.56398 2.37474ZM7.56398 7.06557C7.0558 7.06557 6.61115 6.8799 6.23002 6.50854C5.85866 6.13718 5.67298 5.69253 5.67298 5.17458C5.67298 4.65663 5.85378 4.21687 6.21536 3.85528C6.58672 3.48392 7.03137 3.29825 7.54932 3.29825C8.06726 3.29825 8.50703 3.48392 8.86862 3.85528C9.23997 4.21687 9.42565 4.65663 9.42565 5.17458C9.42565 5.69253 9.24486 6.13718 8.88328 6.50854C8.52169 6.8799 8.08192 7.06557 7.56398 7.06557ZM15.0253 5.07197C15.0156 5.05242 15.0107 5.03776 15.0107 5.02799C15.0107 5.01822 15.0107 5.00845 15.0107 4.99867C15.0107 4.9889 15.0058 4.98402 14.996 4.98402C14.996 4.97424 14.996 4.96936 14.996 4.96936C14.996 4.95958 14.996 4.9547 14.996 4.9547C14.996 4.94492 14.9911 4.93515 14.9814 4.92538C14.6491 4.14357 14.2191 3.44972 13.6914 2.84382C13.1637 2.22815 12.5773 1.7102 11.9323 1.28998C11.2873 0.86976 10.5886 0.552151 9.8361 0.337154C9.09339 0.112385 8.33112 0 7.54932 0C6.76751 0 6.00036 0.112385 5.24788 0.337154C4.49539 0.552151 3.79176 0.86976 3.137 1.28998C2.48224 1.7102 1.88611 2.22815 1.34862 2.84382C0.820897 3.44972 0.386017 4.14357 0.0439766 4.92538C0.0439766 4.93515 0.0439766 4.94492 0.0439766 4.9547C0.0439766 4.9547 0.0439766 4.95958 0.0439766 4.96936C0.0439766 4.96936 0.0390903 4.97424 0.0293177 4.98402C0.0293177 5.00356 0.0293177 5.01822 0.0293177 5.02799C0.0293177 5.03776 0.0244314 5.04754 0.0146589 5.05731C0.0146589 5.07685 0.0146589 5.10129 0.0146589 5.1306C0.00488629 5.15015 0 5.16969 0 5.18924C0 5.20878 0.00488629 5.22833 0.0146589 5.24787C0.0146589 5.26742 0.0146589 5.28697 0.0146589 5.30651C0.0244314 5.32606 0.0293177 5.34071 0.0293177 5.35049C0.0293177 5.36026 0.0293177 5.37003 0.0293177 5.3798C0.0293177 5.38958 0.0293177 5.39935 0.0293177 5.40912C0.0390903 5.40912 0.0439766 5.40912 0.0439766 5.40912C0.0439766 5.41889 0.0439766 5.42867 0.0439766 5.43844C0.0439766 5.43844 0.0439766 5.44333 0.0439766 5.4531C0.386017 6.23491 0.820897 6.92876 1.34862 7.53466C1.87634 8.14056 2.46758 8.65362 3.12234 9.07384C3.7771 9.48429 4.47584 9.8019 5.21856 10.0267C5.97105 10.2417 6.73819 10.3492 7.52 10.3492C8.30181 10.3492 9.06407 10.2417 9.80678 10.0267C10.5593 9.8019 11.2629 9.48429 11.9177 9.07384C12.5724 8.65362 13.1637 8.14056 13.6914 7.53466C14.2191 6.92876 14.6491 6.23491 14.9814 5.4531C14.9911 5.44333 14.996 5.43844 14.996 5.43844C14.996 5.42867 14.996 5.41889 14.996 5.40912C15.0058 5.39935 15.0107 5.39446 15.0107 5.39446C15.0107 5.37492 15.0107 5.36026 15.0107 5.35049C15.0107 5.34071 15.0156 5.33094 15.0253 5.32117C15.0253 5.30162 15.0253 5.28208 15.0253 5.26253C15.0351 5.23322 15.04 5.20878 15.04 5.18924C15.04 5.16969 15.0351 5.15015 15.0253 5.1306C15.0253 5.11106 15.0253 5.09151 15.0253 5.07197ZM7.52 9.41099C6.85546 9.41099 6.2007 9.32304 5.55571 9.14713C4.91072 8.97123 4.29993 8.70737 3.72335 8.35555C3.15654 8.00374 2.63371 7.56398 2.15485 7.03626C1.676 6.50854 1.28021 5.89287 0.967485 5.18924C1.28021 4.48561 1.676 3.86994 2.15485 3.34222C2.63371 2.8145 3.16143 2.37474 3.73801 2.02292C4.31459 1.66134 4.92538 1.39259 5.57037 1.21669C6.22513 1.03101 6.88478 0.938168 7.54932 0.938168C8.21385 0.938168 8.86862 1.03101 9.51361 1.21669C10.1586 1.39259 10.7645 1.66134 11.3313 2.02292C11.9079 2.37474 12.4307 2.8145 12.8998 3.34222C13.3689 3.86994 13.7598 4.48561 14.0725 5.18924C13.7598 5.89287 13.364 6.50854 12.8851 7.03626C12.4161 7.56398 11.8932 8.00374 11.3166 8.35555C10.7498 8.70737 10.1391 8.97123 9.48429 9.14713C8.8393 9.32304 8.18454 9.41099 7.52 9.41099Z" fill="#D5D5D5"/>
</svg>
