<svg width="56" height="56" viewBox="0 0 56 56" fill="none" xmlns="http://www.w3.org/2000/svg">
<circle cx="28" cy="28" r="28" fill="#F8F8F8"/>
<g clip-path="url(#clip0)">
<path d="M23.9502 23.581H34.1604V34.1132H23.9502V23.581Z" fill="#F9DD9D"/>
<path d="M34.1598 34.3178H23.9496C23.8368 34.3178 23.7451 34.2261 23.7451 34.1132V23.5811C23.7451 23.4682 23.8368 23.3765 23.9496 23.3765H34.1598C34.2727 23.3765 34.3644 23.4682 34.3644 23.5811V34.1132C34.3644 34.2261 34.2727 34.3178 34.1598 34.3178ZM24.1542 33.9087H33.9553V23.7856H24.1542V33.9087Z" fill="#63312D"/>
<path d="M21.8896 23.581H32.0998V34.1132H21.8896V23.581Z" fill="#F9DD9D"/>
<path d="M22.7078 24.3991H32.0998V23.581H21.8896V34.1132H22.7078V24.3991Z" fill="#FFEECF"/>
<path d="M32.0993 34.3178H21.8891C21.7762 34.3178 21.6846 34.2261 21.6846 34.1132V23.5811C21.6846 23.4682 21.7762 23.3765 21.8891 23.3765H32.0993C32.2124 23.3765 32.3038 23.4682 32.3038 23.5811V34.1132C32.3038 34.2261 32.2124 34.3178 32.0993 34.3178ZM22.0936 33.9087H31.8948V23.7856H22.0936V33.9087Z" fill="#63312D"/>
<path d="M28.3235 26.9562L27.8801 27.2985L27.4363 26.9562L26.9932 27.2985L26.5514 26.9562L26.1088 27.2985L25.667 26.9562V23.581H28.3235V26.9562Z" fill="#F8F3F3"/>
<path d="M26.9925 27.5031C26.9484 27.5031 26.9042 27.4889 26.8673 27.4605L26.5507 27.2152L26.2333 27.4605C26.1588 27.5179 26.0557 27.5175 25.9834 27.4605L25.5412 27.1186C25.4909 27.0798 25.4619 27.0201 25.4619 26.9566V23.5814C25.4619 23.4686 25.5534 23.3769 25.6664 23.3769H28.3232C28.4362 23.3769 28.5277 23.4686 28.5277 23.5814V26.9566C28.5277 27.0201 28.4983 27.0798 28.4484 27.1186L28.0046 27.4605C27.9309 27.5175 27.8278 27.5175 27.7547 27.4605L27.4363 27.2146L27.1185 27.4601C27.0804 27.4889 27.0362 27.5031 26.9925 27.5031ZM27.4355 26.7517C27.4793 26.7517 27.5238 26.766 27.5608 26.7942L27.8789 27.0401L28.1182 26.8555V23.7856H25.8704V26.8559L26.1081 27.0397L26.4256 26.7942C26.4992 26.7365 26.6022 26.7369 26.6755 26.7942L26.9921 27.0397L27.3099 26.7942C27.3472 26.766 27.3914 26.7517 27.4355 26.7517Z" fill="#63312D"/>
<path d="M29.1772 17.8791L29.9897 17.0668C30.1869 16.8697 30.1869 16.5493 29.9897 16.3521C29.7926 16.155 29.4722 16.155 29.2751 16.3521L27.6614 17.9658C27.464 18.163 27.464 18.4833 27.6614 18.6805L29.2751 20.2942C29.4722 20.4915 29.7926 20.4915 29.9897 20.2942C30.1869 20.097 30.1869 19.7768 29.9897 19.5797L29.3364 18.9264C34.5347 19.6169 38.486 24.3137 37.9477 29.8075C37.4813 34.5692 33.5902 38.3784 28.8207 38.7527C23.1243 39.1995 18.3199 34.8315 18.0524 29.2935C18.0394 29.0229 17.8245 28.8064 17.5535 28.8064H17.5411C17.2604 28.8064 17.0286 29.0375 17.0415 29.3177C17.33 35.5851 22.894 40.499 29.3847 39.7116C34.5467 39.0853 38.4868 35.0122 38.9599 29.8344C39.5196 23.7133 35.0241 18.4947 29.1772 17.8791Z" fill="#82D9FF"/>
<path d="M28.008 40.0001C25.3634 40.0001 22.8455 39.0837 20.8002 37.3542C18.4246 35.3448 16.9801 32.4188 16.8376 29.3271C16.8291 29.1389 16.897 28.9594 17.0284 28.8216C17.1616 28.6821 17.3486 28.6018 17.5417 28.6018C17.93 28.6018 18.2388 28.9013 18.2572 29.2837C18.3856 31.9391 19.5613 34.3747 21.5668 36.1413C23.568 37.9032 26.1378 38.7581 28.8045 38.5486C33.4472 38.1839 37.2904 34.4176 37.7442 29.7869C38.2411 24.7183 34.8464 20.2005 29.931 19.2311L30.1348 19.4349C30.269 19.5689 30.3429 19.7473 30.3429 19.9366C30.3429 20.1262 30.269 20.3045 30.1348 20.4386C29.8675 20.707 29.3987 20.7074 29.1309 20.4386L27.5172 18.8253C27.2402 18.5488 27.2402 18.0984 27.5172 17.821L29.1309 16.2077C29.4077 15.9303 29.8585 15.9311 30.1348 16.2077C30.4116 16.4846 30.4116 16.9346 30.1348 17.2116L29.6184 17.7277C35.4542 18.5668 39.7072 23.9168 39.1643 29.8528C38.6813 35.1391 34.6704 39.2768 29.4099 39.915C28.9399 39.9717 28.4724 40.0001 28.008 40.0001ZM17.5541 29.0109C17.4604 29.0109 17.3805 29.0449 17.3242 29.1042C17.2701 29.1603 17.2427 29.233 17.2459 29.3087C17.3835 32.2876 18.7751 35.1059 21.0645 37.0426C23.3802 39.0016 26.328 39.8794 29.3604 39.5091C34.4279 38.8939 38.2922 34.908 38.757 29.8157C39.2919 23.9593 34.985 18.696 29.1559 18.0821C29.0778 18.0739 29.011 18.0215 28.9845 17.947C28.9579 17.8725 28.9767 17.79 29.0326 17.7339L29.8451 16.9216C29.9626 16.8041 29.9626 16.6134 29.8451 16.4961C29.7273 16.3783 29.5368 16.3787 29.4197 16.4961L27.806 18.1094C27.689 18.2269 27.6886 18.4178 27.806 18.5353L29.4197 20.1485C29.5334 20.2632 29.7323 20.2624 29.8451 20.1485C29.9626 20.0313 29.9626 19.8405 29.8451 19.7231L29.1914 19.07C29.1297 19.008 29.1141 18.9132 29.1527 18.8347C29.191 18.7562 29.2781 18.712 29.3628 18.7226C34.8296 19.4487 38.6899 24.3259 38.1506 29.8266C37.6787 34.6519 33.6743 38.5765 28.8363 38.9561C26.0597 39.175 23.3806 38.2835 21.2962 36.4477C19.2065 34.6074 17.9819 32.0699 17.8485 29.3035C17.8407 29.1393 17.7115 29.0109 17.5541 29.0109Z" fill="#63312D"/>
</g>
<defs>
<clipPath id="clip0">
<rect width="24" height="24" fill="white" transform="translate(16 16)"/>
</clipPath>
</defs>
</svg>
