<svg width="56" height="56" viewBox="0 0 56 56" fill="none" xmlns="http://www.w3.org/2000/svg">
<circle cx="28" cy="28" r="28" fill="#F8F8F8"/>
<path d="M36.6894 26.3448H32.1377V22.2069H35.8618L36.6894 26.3448Z" fill="#B4E1FA"/>
<path d="M16.8278 33.3793H39.1727C39.4012 33.3793 39.5865 33.194 39.5865 32.9655V30.069H16.4141V32.9655C16.4141 33.194 16.5993 33.3793 16.8278 33.3793Z" fill="#707487"/>
<path d="M32.1382 30.069V23.4483H30.483V30.069H16.4141V31.7241H39.5864V30.069H32.1382Z" fill="#5B5D6E"/>
<path d="M16.4138 19.7241H30.4828C30.7113 19.7241 30.8966 19.9094 30.8966 20.1379V30.069C30.8966 30.2975 30.7113 30.4828 30.4828 30.4828H16.4138C16.1853 30.4828 16 30.2975 16 30.069V20.1379C16 19.9094 16.1853 19.7241 16.4138 19.7241Z" fill="#F9DD9D"/>
<path d="M38.9855 26.587L37.0533 26.035L36.454 22.7379C36.3105 21.9507 35.6256 21.3793 34.8255 21.3793H32.1374C31.9087 21.3793 31.7236 21.5643 31.7236 21.7931V29.2414H39.5857V27.3828C39.5857 27.0133 39.3408 26.6885 38.9855 26.587ZM33.3788 25.931C32.9218 25.931 32.5513 25.5605 32.5513 25.1034V23.0344C32.5513 22.8059 32.7366 22.6206 32.9651 22.6206H35.2511C35.4513 22.6206 35.6228 22.764 35.6583 22.961L36.1423 25.6466C36.169 25.7947 36.0552 25.931 35.9046 25.931H33.3788Z" fill="#F9DD9D"/>
<path d="M35.4486 36.2759C36.8198 36.2759 37.9314 35.1643 37.9314 33.7931C37.9314 32.4219 36.8198 31.3103 35.4486 31.3103C34.0774 31.3103 32.9658 32.4219 32.9658 33.7931C32.9658 35.1643 34.0774 36.2759 35.4486 36.2759Z" fill="#464655"/>
<path d="M35.4481 35.4483C36.3622 35.4483 37.1033 34.7072 37.1033 33.7931C37.1033 32.879 36.3622 32.1379 35.4481 32.1379C34.534 32.1379 33.793 32.879 33.793 33.7931C33.793 34.7072 34.534 35.4483 35.4481 35.4483Z" fill="#C7CFE2"/>
<path d="M35.4478 34.4138C35.7906 34.4138 36.0685 34.1359 36.0685 33.7931C36.0685 33.4503 35.7906 33.1724 35.4478 33.1724C35.105 33.1724 34.8271 33.4503 34.8271 33.7931C34.8271 34.1359 35.105 34.4138 35.4478 34.4138Z" fill="#AFB9D2"/>
<path d="M20.1381 36.2759C21.5093 36.2759 22.6208 35.1643 22.6208 33.7931C22.6208 32.4219 21.5093 31.3103 20.1381 31.3103C18.7669 31.3103 17.6553 32.4219 17.6553 33.7931C17.6553 35.1643 18.7669 36.2759 20.1381 36.2759Z" fill="#464655"/>
<path d="M20.1386 35.4483C21.0527 35.4483 21.7937 34.7072 21.7937 33.7931C21.7937 32.879 21.0527 32.1379 20.1386 32.1379C19.2244 32.1379 18.4834 32.879 18.4834 33.7931C18.4834 34.7072 19.2244 35.4483 20.1386 35.4483Z" fill="#C7CFE2"/>
<path d="M20.1382 34.4138C20.481 34.4138 20.7589 34.1359 20.7589 33.7931C20.7589 33.4503 20.481 33.1724 20.1382 33.1724C19.7955 33.1724 19.5176 33.4503 19.5176 33.7931C19.5176 34.1359 19.7955 34.4138 20.1382 34.4138Z" fill="#AFB9D2"/>
<path d="M32.1374 32.9655H32.2955C32.4522 32.9655 32.5955 32.877 32.6656 32.7368L33.5639 30.9403C33.7041 30.6599 33.9906 30.4828 34.3041 30.4828H36.5915C36.905 30.4828 37.1916 30.6599 37.3317 30.9403L38.23 32.7368C38.3001 32.877 38.4434 32.9655 38.6001 32.9655H39.5857C39.8142 32.9655 39.9995 32.7802 39.9995 32.5517V29.6552C39.9995 29.1981 39.629 28.8276 39.1719 28.8276H31.7236V32.5517C31.7236 32.7802 31.9089 32.9655 32.1374 32.9655Z" fill="#DDC48B"/>
<path d="M30.4824 34.2069H26.3445C26.116 34.2069 25.9307 34.0216 25.9307 33.7931V32.1379C25.9307 31.9094 26.116 31.7241 26.3445 31.7241H30.4824C30.7109 31.7241 30.8962 31.9094 30.8962 32.1379V33.7931C30.8962 34.0216 30.7109 34.2069 30.4824 34.2069Z" fill="#AFB9D2"/>
<path d="M27.5867 32.5517C27.3581 32.5517 27.1729 32.737 27.1729 32.9655V34.2069H28.0005V32.9655C28.0005 32.737 27.8152 32.5517 27.5867 32.5517Z" fill="#959CB3"/>
<path d="M29.2419 32.5517C29.0134 32.5517 28.8281 32.737 28.8281 32.9655V34.2069H29.6557V32.9655C29.6557 32.737 29.4705 32.5517 29.2419 32.5517Z" fill="#959CB3"/>
<path d="M29.6547 29.6551H17.241C17.0124 29.6551 16.8271 29.4698 16.8271 29.2413C16.8271 29.0128 17.0124 28.8275 17.241 28.8275H29.6547C29.8832 28.8275 30.0685 29.0128 30.0685 29.2413C30.0685 29.4699 29.8832 29.6551 29.6547 29.6551Z" fill="#FFC36E"/>
</svg>
